<svg width="16" height="20" viewBox="0 0 16 20" fill="none" xmlns="http://www.w3.org/2000/svg">
<path d="M14.7921 2.44744H10.8778C10.6485 1.0366 9.42966 0 8.00005 0C6.57044 0 5.35166 1.03658 5.12225 2.44744H1.20804C0.505736 2.48655 -0.0338884 3.08663 0.00166019 3.78893V5.26379C0.00166019 5.38914 0.0514441 5.51003 0.140345 5.59895C0.229246 5.68787 0.35015 5.73764 0.475508 5.73764H1.45253V17.2689C1.45253 18.4468 2.40731 19.4025 3.58612 19.4025H12.4139C13.5927 19.4025 14.5475 18.4468 14.5475 17.2689V5.73764H15.5245C15.6498 5.73764 15.7707 5.68785 15.8597 5.59895C15.9486 5.51005 15.9983 5.38914 15.9983 5.26379V3.78893C16.0339 3.08663 15.4944 2.48654 14.7921 2.44744ZM8.00005 0.94948C8.90595 0.94948 9.69537 1.56823 9.91317 2.44744H6.08703C6.30483 1.56821 7.09417 0.94948 8.00005 0.94948ZM13.5998 17.2688C13.5998 17.5835 13.4744 17.8849 13.2522 18.1072C13.0299 18.3294 12.7285 18.4539 12.4138 18.4539H3.58608C2.93089 18.4539 2.40017 17.9231 2.40017 17.2688V5.73762H13.5998L13.5998 17.2688ZM15.0506 4.78996H0.949274V3.78895C0.949274 3.56404 1.08707 3.39512 1.20797 3.39512H14.792C14.9129 3.39512 15.0507 3.56314 15.0507 3.78895L15.0506 4.78996ZM4.91788 16.5533V7.63931C4.91788 7.37706 5.13035 7.16548 5.3926 7.16548C5.65396 7.16548 5.86643 7.37706 5.86643 7.63931V16.5533C5.86643 16.8147 5.65396 17.0271 5.3926 17.0271C5.13035 17.0271 4.91788 16.8147 4.91788 16.5533ZM7.52531 16.5533L7.5262 7.63931C7.5262 7.37706 7.73778 7.16548 8.00003 7.16548C8.26228 7.16548 8.47386 7.37706 8.47386 7.63931V16.5533C8.47386 16.8147 8.26228 17.0271 8.00003 17.0271C7.73778 17.0271 7.5262 16.8147 7.5262 16.5533H7.52531ZM10.1327 16.5533L10.1336 7.63931C10.1336 7.37706 10.3461 7.16548 10.6075 7.16548C10.8697 7.16548 11.0822 7.37706 11.0822 7.63931V16.5533C11.0822 16.8147 10.8697 17.0271 10.6075 17.0271C10.3461 17.0271 10.1336 16.8147 10.1336 16.5533H10.1327Z" fill="#B25657"/>
</svg>
