<svg width="24" height="24" viewBox="0 0 24 24" fill="none" xmlns="http://www.w3.org/2000/svg">
<path d="M13.93 6.46611L8.7982 11.5979C8.68827 11.7078 8.62708 11.862 8.62708 12.0183L8.67694 14.9367C8.68261 15.2495 8.93534 15.5023 9.24815 15.5079L12.1697 15.5578H12.1788C12.3329 15.5578 12.4803 15.4966 12.5879 15.3867L19.2757 8.69895C19.9341 8.0405 19.9341 6.96723 19.2757 6.30879L17.8806 4.91368C17.561 4.59407 17.1349 4.4173 16.6849 4.4173C16.2327 4.4173 15.8089 4.5941 15.4893 4.91368L13.93 6.46611C13.9334 6.46271 13.93 6.46271 13.93 6.46611ZM11.9399 14.3912L9.8274 14.3561L9.79227 12.2436L14.3415 7.69443L16.488 9.84091L11.9399 14.3912ZM16.3066 5.73151C16.5072 5.53091 16.8574 5.53091 17.058 5.73151L18.4531 7.12662C18.6593 7.33288 18.6593 7.66948 18.4531 7.87799L17.3096 9.0215L15.1631 6.87502L16.3066 5.73151Z" fill="#667085"/>
<path d="M7.42035 20H16.5797C18.4655 20 20 18.4655 20 16.5797V12.0012C20 11.6816 19.7393 11.4209 19.4197 11.4209C19.1001 11.4209 18.8395 11.6816 18.8395 12.0012V16.582C18.8395 17.8264 17.8274 18.8418 16.5797 18.8418H7.42032C6.17593 18.8418 5.16048 17.8298 5.16048 16.582V7.42035C5.16048 6.17596 6.17254 5.16051 7.42032 5.16051H12.2858C12.6054 5.16051 12.866 4.89985 12.866 4.58026C12.866 4.26066 12.6054 4 12.2858 4H7.42032C5.53449 4 4 5.53452 4 7.42032V16.5797C4.00227 18.4677 5.53454 20 7.42035 20Z" fill="#667085"/>
</svg>
