<svg width="16" height="20" viewBox="0 0 16 20" fill="none" xmlns="http://www.w3.org/2000/svg">
<path fill-rule="evenodd" clip-rule="evenodd" d="M7.99976 2.49967C7.30942 2.49967 6.74976 3.05932 6.74976 3.74967C6.74976 3.93391 6.78934 4.10841 6.86067 4.2656C7.23409 4.1999 7.61559 4.16634 7.99976 4.16634C8.38401 4.16634 8.76551 4.1999 9.13892 4.2656C9.21026 4.10841 9.24976 3.93392 9.24976 3.74967C9.24976 3.05932 8.69017 2.49967 7.99976 2.49967ZM10.7337 4.76757C10.8518 4.45057 10.9164 4.10749 10.9164 3.74967C10.9164 2.13884 9.61059 0.833008 7.99976 0.833008C6.38892 0.833008 5.08312 2.13884 5.08312 3.74967C5.08312 4.10749 5.14778 4.45057 5.26589 4.76757C4.77763 4.99655 4.32307 5.28849 3.91847 5.63914C2.81462 6.59582 2.16646 7.9211 2.16646 9.33301C2.16646 11.0894 1.73291 12.3329 1.22252 13.1961L1.21402 13.2105C0.885857 13.7654 0.629557 14.1989 0.457649 14.5101C0.371716 14.6656 0.296107 14.8098 0.241132 14.9333C0.213874 14.9944 0.183807 15.0679 0.160374 15.146C0.142907 15.2042 0.0999156 15.3551 0.117791 15.5379C0.127607 15.6383 0.150132 15.8378 0.266241 16.0413C0.382357 16.2448 0.542549 16.3658 0.623982 16.4253C0.756682 16.5223 0.889482 16.564 0.955616 16.5823C1.03367 16.6039 1.10951 16.6167 1.17239 16.6251C1.29812 16.6419 1.44453 16.6505 1.59712 16.6558C1.90132 16.6663 2.32665 16.6663 2.86258 16.6663H4.77146C5.14151 18.104 6.44659 19.1663 7.99976 19.1663C9.55301 19.1663 10.8581 18.104 11.2281 16.6663H13.137C13.6729 16.6663 14.0983 16.6663 14.4024 16.6558C14.555 16.6505 14.7014 16.6419 14.8272 16.6251C14.8901 16.6167 14.9659 16.6039 15.0439 16.5823C15.1101 16.564 15.2429 16.5223 15.3756 16.4253C15.457 16.3658 15.6173 16.2448 15.7333 16.0413C15.8494 15.8378 15.872 15.6383 15.8818 15.5379C15.8997 15.3551 15.8567 15.2042 15.8392 15.146C15.8158 15.0679 15.7857 14.9944 15.7584 14.9333C15.7035 14.8098 15.6278 14.6656 15.5419 14.5101C15.37 14.1989 15.1137 13.7654 14.7855 13.2103L14.7771 13.1961C14.2667 12.3329 13.8331 11.0894 13.8331 9.33301C13.8331 7.9211 13.1849 6.59582 12.0811 5.63914C11.6765 5.28849 11.2219 4.99655 10.7337 4.76757ZM9.26159 5.99808C9.27217 6.00117 9.28276 6.00406 9.29342 6.00672C9.93459 6.18348 10.5174 6.48948 10.9895 6.89862C11.761 7.56725 12.1664 8.44634 12.1664 9.33301C12.1664 11.3796 12.676 12.9173 13.3424 14.0444C13.5717 14.4321 13.7574 14.7463 13.9028 14.998C13.6867 14.9997 13.4273 14.9997 13.1179 14.9997H2.88161C2.57232 14.9997 2.3129 14.9997 2.09683 14.998C2.24214 14.7463 2.42793 14.4321 2.65716 14.0444C3.32356 12.9173 3.83312 11.3796 3.83312 9.33301C3.83312 8.44634 4.23853 7.56725 5.01003 6.89862C5.48212 6.48948 6.06498 6.18348 6.70617 6.00672C6.71684 6.00406 6.72742 6.00117 6.73801 5.99808C7.14034 5.89017 7.56526 5.83301 7.99976 5.83301C8.43434 5.83301 8.85917 5.89016 9.26159 5.99808ZM6.55609 16.6663C6.84426 17.1645 7.38292 17.4997 7.99976 17.4997C8.61667 17.4997 9.15534 17.1645 9.44351 16.6663H6.55609Z" fill="#8B0203"/>
</svg>
