<svg width="14" height="15" viewBox="0 0 14 15" fill="none" xmlns="http://www.w3.org/2000/svg">
<g clip-path="url(#clip0_82_148)">
<path d="M12.75 2.8252H10.125V1.8252C10.125 1.75645 10.0688 1.7002 10 1.7002H9.125C9.05625 1.7002 9 1.75645 9 1.8252V2.8252H5V1.8252C5 1.75645 4.94375 1.7002 4.875 1.7002H4C3.93125 1.7002 3.875 1.75645 3.875 1.8252V2.8252H1.25C0.973437 2.8252 0.75 3.04863 0.75 3.3252V13.7002C0.75 13.9768 0.973437 14.2002 1.25 14.2002H12.75C13.0266 14.2002 13.25 13.9768 13.25 13.7002V3.3252C13.25 3.04863 13.0266 2.8252 12.75 2.8252ZM12.125 13.0752H1.875V7.1377H12.125V13.0752ZM1.875 6.0752V3.9502H3.875V4.7002C3.875 4.76895 3.93125 4.8252 4 4.8252H4.875C4.94375 4.8252 5 4.76895 5 4.7002V3.9502H9V4.7002C9 4.76895 9.05625 4.8252 9.125 4.8252H10C10.0688 4.8252 10.125 4.76895 10.125 4.7002V3.9502H12.125V6.0752H1.875Z" fill="#8B0203"/>
</g>
<defs>
<clipPath id="clip0_82_148">
<rect width="14" height="14" fill="white" transform="translate(0 0.950195)"/>
</clipPath>
</defs>
</svg>
