<svg width="22" height="23" viewBox="0 0 22 23" fill="none" xmlns="http://www.w3.org/2000/svg">
<path d="M18.6455 0.612793H3.35463C1.59542 0.612793 0.161377 2.04684 0.161377 3.80604C0.161377 4.65647 0.494876 5.45686 1.09517 6.0655L7.6651 12.6354V20.2809C7.6651 21.3898 8.56555 22.2902 9.67443 22.2902C10.208 22.2902 10.725 22.0734 11.1001 21.6983L13.6014 19.197C14.0766 18.7218 14.3351 18.0965 14.3351 17.4295V12.6271L20.905 6.05716C21.5053 5.45686 21.8388 4.65647 21.8388 3.80604C21.8388 2.04684 20.4048 0.612793 18.6455 0.612793ZM19.7211 4.88158L13.1595 11.4515C12.8427 11.7683 12.6676 12.1852 12.6676 12.6354V17.4378C12.6676 17.6546 12.5759 17.8714 12.4258 18.0298L9.92455 20.531C9.72445 20.7228 9.33259 20.556 9.33259 20.2809V12.6354C9.33259 12.1935 9.15751 11.7683 8.84068 11.4598L2.27909 4.88158C1.99562 4.5981 1.82887 4.20624 1.82887 3.80604C1.82887 2.96396 2.51254 2.28029 3.35463 2.28029H18.6455C19.4876 2.28029 20.1713 2.96396 20.1713 3.80604C20.1713 4.20624 20.0046 4.5981 19.7211 4.88158Z" fill="white"/>
</svg>
