<svg width="9" height="13" viewBox="0 0 9 13" fill="none" xmlns="http://www.w3.org/2000/svg">
<path d="M8.31252 1.83111V0.6233C8.31252 0.518612 8.19221 0.4608 8.11096 0.524862L1.06721 6.02642C1.00736 6.07297 0.958938 6.13256 0.925627 6.20066C0.892316 6.26877 0.875 6.34358 0.875 6.41939C0.875 6.49521 0.892316 6.57002 0.925627 6.63812C0.958938 6.70623 1.00736 6.76582 1.06721 6.81236L8.11096 12.3139C8.19377 12.378 8.31252 12.3202 8.31252 12.2155V11.0077C8.31252 10.9311 8.27659 10.8577 8.21721 10.8108L2.59221 6.42017L8.21721 2.02799C8.27659 1.98111 8.31252 1.90767 8.31252 1.83111Z" fill="black" fill-opacity="0.25"/>
</svg>
