<svg width="14" height="15" viewBox="0 0 14 15" fill="none" xmlns="http://www.w3.org/2000/svg">
<path d="M11.8782 10.4265C11.4871 10.0351 11.0301 9.71566 10.5282 9.48279C11.236 8.90935 11.6875 8.03435 11.6875 7.0531C11.6875 5.32185 10.2438 3.90154 8.51254 3.9281C6.80785 3.95466 5.43441 5.34373 5.43441 7.0531C5.43441 8.03435 5.88754 8.90935 6.59379 9.48279C6.09177 9.71549 5.63476 10.035 5.24379 10.4265C4.39066 11.2812 3.90629 12.4094 3.87504 13.6125C3.87462 13.6292 3.87755 13.6457 3.88364 13.6613C3.88974 13.6768 3.89888 13.691 3.91053 13.7029C3.92218 13.7148 3.9361 13.7243 3.95147 13.7308C3.96684 13.7373 3.98336 13.7406 4.00004 13.7406H4.87504C4.94223 13.7406 4.99848 13.6875 5.00004 13.6203C5.02973 12.714 5.39691 11.8656 6.04223 11.2219C6.37245 10.8899 6.76523 10.6267 7.19784 10.4475C7.63045 10.2684 8.0943 10.1768 8.56254 10.1781C9.5141 10.1781 10.4094 10.5484 11.0829 11.2219C11.7266 11.8656 12.0938 12.714 12.125 13.6203C12.1266 13.6875 12.1829 13.7406 12.25 13.7406H13.125C13.1417 13.7406 13.1582 13.7373 13.1736 13.7308C13.189 13.7243 13.2029 13.7148 13.2146 13.7029C13.2262 13.691 13.2353 13.6768 13.2414 13.6613C13.2475 13.6457 13.2505 13.6292 13.25 13.6125C13.2188 12.4094 12.7344 11.2812 11.8782 10.4265ZM8.56254 9.0531C8.02816 9.0531 7.52504 8.84529 7.14848 8.46716C6.9595 8.27967 6.81022 8.05604 6.70955 7.8096C6.60888 7.56316 6.55888 7.29897 6.56254 7.03279C6.56723 6.52029 6.77191 6.02498 7.12973 5.65779C7.50473 5.27341 8.00629 5.05935 8.54223 5.0531C9.07191 5.04841 9.58598 5.25466 9.9641 5.62498C10.3516 6.00466 10.5641 6.51248 10.5641 7.0531C10.5641 7.58748 10.3563 8.08904 9.97816 8.46716C9.79265 8.65356 9.57202 8.80132 9.32903 8.9019C9.08604 9.00247 8.82552 9.05387 8.56254 9.0531ZM4.64848 7.4656C4.63441 7.32966 4.6266 7.19216 4.6266 7.0531C4.6266 6.80466 4.65004 6.56248 4.69379 6.32654C4.70473 6.27029 4.67504 6.21248 4.62348 6.18904C4.41098 6.09373 4.21566 5.96248 4.04691 5.79685C3.84807 5.60405 3.6916 5.37192 3.58748 5.11526C3.48337 4.85861 3.4339 4.58307 3.44223 4.30623C3.45629 3.80466 3.65785 3.3281 4.00941 2.96873C4.39535 2.57341 4.9141 2.35779 5.46566 2.36404C5.9641 2.36873 6.44535 2.56091 6.80941 2.90154C6.93285 3.01716 7.0391 3.14529 7.12816 3.28279C7.15941 3.33123 7.22035 3.35154 7.27348 3.33279C7.54848 3.23748 7.8391 3.17029 8.13754 3.13904C8.22504 3.12966 8.27504 3.03591 8.23598 2.95779C7.72816 1.9531 6.69066 1.25935 5.49066 1.2406C3.75785 1.21404 2.3141 2.63435 2.3141 4.36404C2.3141 5.34529 2.76566 6.22029 3.47348 6.79373C2.9766 7.02341 2.51879 7.3406 2.12191 7.73748C1.26566 8.59216 0.781289 9.72029 0.750039 10.925C0.749622 10.9417 0.752547 10.9582 0.758642 10.9738C0.764737 10.9893 0.773878 11.0035 0.785527 11.0154C0.797176 11.0273 0.811098 11.0368 0.826471 11.0433C0.841844 11.0498 0.858358 11.0531 0.875039 11.0531H1.7516C1.81879 11.0531 1.87504 11 1.8766 10.9328C1.90629 10.0265 2.27348 9.1781 2.91879 8.53435C3.37816 8.07498 3.94066 7.75623 4.55473 7.60154C4.61566 7.58591 4.65629 7.5281 4.64848 7.4656Z" fill="#334155"/>
</svg>
