<svg width="15" height="15" viewBox="0 0 15 15" fill="none" xmlns="http://www.w3.org/2000/svg">
<path d="M7.03125 1.62988H7.96875C8.05208 1.62988 8.09375 1.67155 8.09375 1.75488V12.7549C8.09375 12.8382 8.05208 12.8799 7.96875 12.8799H7.03125C6.94792 12.8799 6.90625 12.8382 6.90625 12.7549V1.75488C6.90625 1.67155 6.94792 1.62988 7.03125 1.62988Z" fill="#444444"/>
<path d="M2.25 6.66113H12.75C12.8333 6.66113 12.875 6.7028 12.875 6.78613V7.72363C12.875 7.80697 12.8333 7.84863 12.75 7.84863H2.25C2.16667 7.84863 2.125 7.80697 2.125 7.72363V6.78613C2.125 6.7028 2.16667 6.66113 2.25 6.66113Z" fill="#444444"/>
</svg>
