<svg width="16" height="17" viewBox="0 0 16 17" fill="none" xmlns="http://www.w3.org/2000/svg">
<path d="M14.4287 7.34068H3.98048L10.234 1.91211C10.334 1.82461 10.2733 1.66211 10.1412 1.66211H8.56084C8.49119 1.66211 8.42512 1.68711 8.37334 1.73175L1.62512 7.58711C1.56332 7.64068 1.51375 7.70692 1.47978 7.78132C1.4458 7.85573 1.42822 7.93657 1.42822 8.01836C1.42822 8.10015 1.4458 8.18099 1.47978 8.2554C1.51375 8.3298 1.56332 8.39603 1.62512 8.44961L8.41262 14.3407C8.43941 14.3639 8.47155 14.3764 8.50548 14.3764H10.1394C10.2716 14.3764 10.3323 14.2121 10.2323 14.1264L3.98048 8.69782H14.4287C14.5073 8.69782 14.5716 8.63354 14.5716 8.55497V7.48354C14.5716 7.40497 14.5073 7.34068 14.4287 7.34068Z" fill="#334155"/>
</svg>
