<svg width="9" height="13" viewBox="0 0 9 13" fill="none" xmlns="http://www.w3.org/2000/svg">
<path d="M7.96406 6.02629L0.920314 0.524731C0.901908 0.510241 0.879789 0.501236 0.856496 0.49875C0.833203 0.496264 0.809681 0.500399 0.788632 0.510678C0.767583 0.520958 0.749861 0.536966 0.7375 0.556865C0.725139 0.576763 0.71864 0.599744 0.718751 0.623169V1.83098C0.718751 1.90754 0.754689 1.98098 0.814064 2.02786L6.43906 6.42004L0.814064 10.8122C0.753126 10.8591 0.718751 10.9325 0.718751 11.0091V12.2169C0.718751 12.3216 0.839064 12.3794 0.920314 12.3154L7.96406 6.81379C8.02393 6.7671 8.07236 6.70736 8.10567 6.63913C8.13898 6.5709 8.1563 6.49597 8.1563 6.42004C8.1563 6.34412 8.13898 6.26919 8.10567 6.20096C8.07236 6.13273 8.02393 6.07299 7.96406 6.02629Z" fill="#334155"/>
</svg>
