<svg width="32" height="24" viewBox="0 0 32 24" fill="none" xmlns="http://www.w3.org/2000/svg">
<g clip-path="url(#clip0_124_12824)">
<g clip-path="url(#clip1_124_12824)">
<path d="M14 0.960938C16.928 0.960938 19.736 2.12408 21.8064 4.19448C23.8768 6.26488 25.04 9.07295 25.04 12.0009C25.04 14.9289 23.8768 17.737 21.8064 19.8074C19.736 21.8778 16.928 23.0409 14 23.0409C11.072 23.0409 8.2639 21.8778 6.1935 19.8074C4.1231 17.737 2.95996 14.9289 2.95996 12.0009C2.95996 9.07295 4.1231 6.26488 6.1935 4.19448C8.2639 2.12408 11.072 0.960938 14 0.960938Z" stroke="#F3F3F3" stroke-width="1.92" stroke-linecap="round" stroke-dasharray="69.37 69.37"/>
<path d="M14 0.960938C16.928 0.960938 19.736 2.12408 21.8064 4.19448C23.8768 6.26488 25.04 9.07295 25.04 12.0009C25.04 14.9289 23.8768 17.737 21.8064 19.8074C19.736 21.8778 16.928 23.0409 14 23.0409C11.072 23.0409 8.2639 21.8778 6.1935 19.8074C4.1231 17.737 2.95996 14.9289 2.95996 12.0009C2.95996 9.07295 4.1231 6.26488 6.1935 4.19448C8.2639 2.12408 11.072 0.960938 14 0.960938Z" stroke="white" stroke-width="1.92" stroke-linecap="round" stroke-dasharray="69.37 69.37"/>
</g>
<g opacity="0.75" clip-path="url(#clip2_124_12824)">
<path d="M14 3C9.02991 3 5 7.02991 5 12C5 16.9701 9.02991 21 14 21C18.9701 21 23 16.9701 23 12C23 7.02991 18.9701 3 14 3ZM14 19.4732C9.87366 19.4732 6.52679 16.1263 6.52679 12C6.52679 7.87366 9.87366 4.52679 14 4.52679C18.1263 4.52679 21.4732 7.87366 21.4732 12C21.4732 16.1263 18.1263 19.4732 14 19.4732Z" fill="white"/>
<path d="M17.5099 14.5439L14.6451 12.4727V7.50056C14.6451 7.41217 14.5728 7.33984 14.4844 7.33984H13.5181C13.4297 7.33984 13.3574 7.41217 13.3574 7.50056V13.0331C13.3574 13.0854 13.3815 13.1336 13.4237 13.1637L16.7465 15.5865C16.8188 15.6387 16.9193 15.6227 16.9715 15.5523L17.546 14.7689C17.5983 14.6945 17.5822 14.5941 17.5099 14.5439Z" fill="white"/>
</g>
</g>
<defs>
<clipPath id="clip0_124_12824">
<rect x="2" width="24" height="24" rx="12" fill="white"/>
</clipPath>
<clipPath id="clip1_124_12824">
<rect width="24" height="24" fill="white" transform="translate(2)"/>
</clipPath>
<clipPath id="clip2_124_12824">
<rect width="18" height="18" fill="white" transform="translate(5 3)"/>
</clipPath>
</defs>
</svg>
