<svg width="30" height="26" viewBox="0 0 30 26" fill="none" xmlns="http://www.w3.org/2000/svg">
<g filter="url(#filter0_d_105_955)">
<path d="M0 4C0 1.79086 1.79086 0 4 0H30V24H4C1.79086 24 0 22.2091 0 20V4Z" fill="white" shape-rendering="crispEdges"/>
<path d="M0.5 4C0.5 2.067 2.067 0.5 4 0.5H29.5V23.5H4C2.067 23.5 0.5 21.933 0.5 20V4Z" stroke="#E2E8F0" shape-rendering="crispEdges"/>
<g clip-path="url(#clip0_105_955)">
<path fill-rule="evenodd" clip-rule="evenodd" d="M12.173 4.58301H17.828C18.364 4.58301 18.808 4.58301 19.168 4.61301C19.543 4.64301 19.888 4.70901 20.211 4.87301C20.713 5.13001 21.121 5.53801 21.376 6.03901C21.541 6.36301 21.606 6.70701 21.637 7.08201C21.667 7.44201 21.667 7.88601 21.667 8.42201V14.077C21.667 14.614 21.667 15.057 21.637 15.417C21.607 15.793 21.541 16.137 21.377 16.461C21.12 16.962 20.713 17.371 20.211 17.626C19.887 17.791 19.543 17.856 19.168 17.887C18.808 17.917 18.364 17.917 17.828 17.917H12.173C11.636 17.917 11.193 17.917 10.833 17.887C10.458 17.857 10.113 17.791 9.79001 17.626C9.28793 17.3703 8.87975 16.9621 8.62401 16.46C8.45901 16.136 8.39401 15.792 8.36301 15.417C8.33301 15.056 8.33301 14.613 8.33301 14.077V8.42101C8.33301 7.88501 8.33301 7.44101 8.36301 7.08101C8.39301 6.70601 8.45901 6.36101 8.62401 6.03801C8.88001 5.53801 9.28801 5.13001 9.79001 4.87401C10.113 4.70901 10.458 4.64401 10.832 4.61301C11.193 4.58301 11.637 4.58301 12.173 4.58301ZM13.667 16.583H17.8C18.371 16.583 18.76 16.583 19.06 16.558C19.352 16.534 19.501 16.491 19.605 16.438C19.856 16.31 20.06 16.106 20.188 15.855C20.241 15.751 20.285 15.601 20.308 15.309C20.333 15.009 20.334 14.621 20.334 14.049V8.45001C20.334 7.88001 20.333 7.49201 20.309 7.19201C20.285 6.89901 20.241 6.75001 20.189 6.64601C20.0609 6.39484 19.8564 6.19073 19.605 6.06301C19.501 6.01001 19.352 5.96601 19.059 5.94301C18.759 5.91801 18.371 5.91801 17.8 5.91801H13.667V16.583ZM12.334 5.91701V16.583H12.2C11.63 16.583 11.24 16.583 10.94 16.558C10.649 16.534 10.5 16.491 10.395 16.438C10.1439 16.3102 9.93985 16.1061 9.81201 15.855C9.75901 15.751 9.71601 15.601 9.69201 15.309C9.66701 15.009 9.66701 14.621 9.66701 14.049V8.45001C9.66701 7.88001 9.66701 7.49201 9.69201 7.19201C9.71601 6.89901 9.75901 6.75001 9.81201 6.64601C9.94001 6.39501 10.144 6.19101 10.395 6.06301C10.499 6.01001 10.649 5.96601 10.941 5.94301C11.241 5.91801 11.629 5.91801 12.201 5.91801L12.334 5.91701Z" fill="#3A3A3A"/>
</g>
</g>
<defs>
<filter id="filter0_d_105_955" x="0" y="0" width="30" height="26" filterUnits="userSpaceOnUse" color-interpolation-filters="sRGB">
<feFlood flood-opacity="0" result="BackgroundImageFix"/>
<feColorMatrix in="SourceAlpha" type="matrix" values="0 0 0 0 0 0 0 0 0 0 0 0 0 0 0 0 0 0 127 0" result="hardAlpha"/>
<feOffset dy="2"/>
<feComposite in2="hardAlpha" operator="out"/>
<feColorMatrix type="matrix" values="0 0 0 0 0 0 0 0 0 0 0 0 0 0 0 0 0 0 0.016 0"/>
<feBlend mode="normal" in2="BackgroundImageFix" result="effect1_dropShadow_105_955"/>
<feBlend mode="normal" in="SourceGraphic" in2="effect1_dropShadow_105_955" result="shape"/>
</filter>
<clipPath id="clip0_105_955">
<rect width="14" height="14" fill="white" transform="translate(8 4.25)"/>
</clipPath>
</defs>
</svg>
