<svg width="24" height="24" viewBox="0 0 24 24" fill="none" xmlns="http://www.w3.org/2000/svg">
<g clip-path="url(#clip0_124_12825)">
<g clip-path="url(#clip1_124_12825)">
<path d="M12 0.960938C14.928 0.960938 17.736 2.12408 19.8064 4.19448C21.8768 6.26488 23.04 9.07295 23.04 12.0009C23.04 14.9289 21.8768 17.737 19.8064 19.8074C17.736 21.8778 14.928 23.0409 12 23.0409C9.07197 23.0409 6.2639 21.8778 4.1935 19.8074C2.1231 17.737 0.959961 14.9289 0.959961 12.0009C0.959961 9.07295 2.1231 6.26488 4.1935 4.19448C6.2639 2.12408 9.07197 0.960938 12 0.960938Z" stroke="#F3F3F3" stroke-width="1.92" stroke-linecap="round" stroke-dasharray="69.37 69.37"/>
<path d="M12 0.960938C14.928 0.960938 17.736 2.12408 19.8064 4.19448C21.8768 6.26488 23.04 9.07295 23.04 12.0009C23.04 14.9289 21.8768 17.737 19.8064 19.8074C17.736 21.8778 14.928 23.0409 12 23.0409C9.07197 23.0409 6.2639 21.8778 4.1935 19.8074C2.1231 17.737 0.959961 14.9289 0.959961 12.0009C0.959961 9.07295 2.1231 6.26488 4.1935 4.19448C6.2639 2.12408 9.07197 0.960938 12 0.960938Z" stroke="white" stroke-width="1.92" stroke-linecap="round" stroke-dasharray="69.37 69.37"/>
</g>
<g opacity="0.75" clip-path="url(#clip2_124_12825)">
<path d="M12 3C7.02991 3 3 7.02991 3 12C3 16.9701 7.02991 21 12 21C16.9701 21 21 16.9701 21 12C21 7.02991 16.9701 3 12 3ZM12 19.4732C7.87366 19.4732 4.52679 16.1263 4.52679 12C4.52679 7.87366 7.87366 4.52679 12 4.52679C16.1263 4.52679 19.4732 7.87366 19.4732 12C19.4732 16.1263 16.1263 19.4732 12 19.4732Z" fill="white"/>
<path d="M15.5099 14.5439L12.6451 12.4727V7.50056C12.6451 7.41217 12.5728 7.33984 12.4844 7.33984H11.5181C11.4297 7.33984 11.3574 7.41217 11.3574 7.50056V13.0331C11.3574 13.0854 11.3815 13.1336 11.4237 13.1637L14.7465 15.5865C14.8188 15.6387 14.9193 15.6227 14.9715 15.5523L15.546 14.7689C15.5983 14.6945 15.5822 14.5941 15.5099 14.5439Z" fill="white"/>
</g>
</g>
<defs>
<clipPath id="clip0_124_12825">
<rect width="24" height="24" rx="12" fill="white"/>
</clipPath>
<clipPath id="clip1_124_12825">
<rect width="24" height="24" fill="white"/>
</clipPath>
<clipPath id="clip2_124_12825">
<rect width="18" height="18" fill="white" transform="translate(3 3)"/>
</clipPath>
</defs>
</svg>
