<svg width="12" height="13" viewBox="0 0 12 13" fill="none" xmlns="http://www.w3.org/2000/svg">
<path fill-rule="evenodd" clip-rule="evenodd" d="M5.41674 1.58341C4.74843 1.58333 4.09031 1.7473 3.50015 2.06091C2.90999 2.37452 2.40582 2.82819 2.0319 3.38211C1.65798 3.93603 1.42573 4.57326 1.35554 5.23787C1.28534 5.90249 1.37935 6.57418 1.62932 7.19398C1.87928 7.81379 2.27755 8.36277 2.78918 8.79275C3.30081 9.22272 3.91015 9.52055 4.56374 9.66008C5.21732 9.79962 5.89516 9.7766 6.53778 9.59305C7.18039 9.40949 7.76813 9.07102 8.24941 8.60733C8.28049 8.56677 8.31677 8.53049 8.35733 8.49941C8.91302 7.92246 9.28675 7.1948 9.43197 6.40703C9.5772 5.61926 9.48751 4.80617 9.17407 4.06899C8.86063 3.33182 8.33729 2.70311 7.6692 2.26115C7.00111 1.81919 6.21779 1.58349 5.41674 1.58341ZM9.51874 8.94391C10.3563 7.89556 10.7606 6.56631 10.6487 5.22916C10.5368 3.89201 9.91716 2.64846 8.91703 1.7539C7.9169 0.859347 6.6122 0.381688 5.2709 0.419027C3.9296 0.456367 2.6535 1.00587 1.70468 1.95468C0.75587 2.9035 0.206367 4.1796 0.169027 5.5209C0.131688 6.8622 0.609347 8.1669 1.5039 9.16703C2.39846 10.1672 3.64201 10.7868 4.97916 10.8987C6.31631 11.0106 7.64556 10.6063 8.69391 9.76874L10.8377 11.9125C10.9477 12.0188 11.095 12.0775 11.248 12.0762C11.4009 12.0749 11.5472 12.0135 11.6554 11.9054C11.7635 11.7972 11.8249 11.6509 11.8262 11.498C11.8275 11.345 11.7688 11.1977 11.6625 11.0877L9.51874 8.94391ZM5.41674 3.33341C5.57145 3.33341 5.71982 3.39487 5.82922 3.50426C5.93862 3.61366 6.00007 3.76203 6.00007 3.91674V5.08341H7.16674C7.32145 5.08341 7.46982 5.14487 7.57922 5.25426C7.68862 5.36366 7.75007 5.51203 7.75007 5.66674C7.75007 5.82145 7.68862 5.96982 7.57922 6.07922C7.46982 6.18862 7.32145 6.25007 7.16674 6.25007H6.00007V7.41674C6.00007 7.57145 5.93862 7.71982 5.82922 7.82922C5.71982 7.93862 5.57145 8.00007 5.41674 8.00007C5.26203 8.00007 5.11366 7.93862 5.00426 7.82922C4.89487 7.71982 4.83341 7.57145 4.83341 7.41674V6.25007H3.66674C3.51203 6.25007 3.36366 6.18862 3.25426 6.07922C3.14487 5.96982 3.08341 5.82145 3.08341 5.66674C3.08341 5.51203 3.14487 5.36366 3.25426 5.25426C3.36366 5.14487 3.51203 5.08341 3.66674 5.08341H4.83341V3.91674C4.83341 3.76203 4.89487 3.61366 5.00426 3.50426C5.11366 3.39487 5.26203 3.33341 5.41674 3.33341Z" fill="black" fill-opacity="0.25"/>
</svg>
