<svg width="16" height="17" viewBox="0 0 16 17" fill="none" xmlns="http://www.w3.org/2000/svg">
<path fill-rule="evenodd" clip-rule="evenodd" d="M6.6665 3.41341C6.6665 2.67703 7.26346 2.08008 7.99984 2.08008C8.73622 2.08008 9.33317 2.67703 9.33317 3.41341C9.33317 4.14979 8.73622 4.74675 7.99984 4.74675C7.26346 4.74675 6.6665 4.14979 6.6665 3.41341ZM6.6665 8.08008C6.6665 7.3437 7.26346 6.74675 7.99984 6.74675C8.73622 6.74675 9.33317 7.3437 9.33317 8.08008C9.33317 8.81646 8.73622 9.41341 7.99984 9.41341C7.26346 9.41341 6.6665 8.81646 6.6665 8.08008ZM6.6665 12.7468C6.6665 12.0104 7.26346 11.4134 7.99984 11.4134C8.73622 11.4134 9.33317 12.0104 9.33317 12.7468C9.33317 13.4831 8.73622 14.0801 7.99984 14.0801C7.26346 14.0801 6.6665 13.4831 6.6665 12.7468Z" fill="#3A3A3A" fill-opacity="0.227451"/>
</svg>
