<svg width="22" height="22" viewBox="0 0 22 22" fill="none" xmlns="http://www.w3.org/2000/svg">
<path d="M10.1043 2.86572H11.5186C11.6443 2.86572 11.7071 2.92858 11.7071 3.05429V19.6478C11.7071 19.7735 11.6443 19.8364 11.5186 19.8364H10.1043C9.97863 19.8364 9.91577 19.7735 9.91577 19.6478V3.05429C9.91577 2.92858 9.97863 2.86572 10.1043 2.86572Z" fill="white"/>
<path d="M2.89193 10.4556H18.7312C18.8569 10.4556 18.9198 10.5184 18.9198 10.6441V12.0584C18.9198 12.1841 18.8569 12.2469 18.7312 12.2469H2.89193C2.76622 12.2469 2.70337 12.1841 2.70337 12.0584V10.6441C2.70337 10.5184 2.76622 10.4556 2.89193 10.4556Z" fill="white"/>
</svg>
