<svg width="14" height="15" viewBox="0 0 14 15" fill="none" xmlns="http://www.w3.org/2000/svg">
<g clip-path="url(#clip0_105_1054)">
<path d="M6.25009 7.14551C6.25009 7.34442 6.32911 7.53519 6.46976 7.67584C6.61041 7.81649 6.80118 7.89551 7.00009 7.89551C7.199 7.89551 7.38977 7.81649 7.53042 7.67584C7.67107 7.53519 7.75009 7.34442 7.75009 7.14551C7.75009 6.9466 7.67107 6.75583 7.53042 6.61518C7.38977 6.47453 7.199 6.39551 7.00009 6.39551C6.80118 6.39551 6.61041 6.47453 6.46976 6.61518C6.32911 6.75583 6.25009 6.9466 6.25009 7.14551ZM9.37509 7.14551C9.37509 7.34442 9.45411 7.53519 9.59476 7.67584C9.73541 7.81649 9.92618 7.89551 10.1251 7.89551C10.324 7.89551 10.5148 7.81649 10.6554 7.67584C10.7961 7.53519 10.8751 7.34442 10.8751 7.14551C10.8751 6.9466 10.7961 6.75583 10.6554 6.61518C10.5148 6.47453 10.324 6.39551 10.1251 6.39551C9.92618 6.39551 9.73541 6.47453 9.59476 6.61518C9.45411 6.75583 9.37509 6.9466 9.37509 7.14551ZM3.12509 7.14551C3.12509 7.34442 3.20411 7.53519 3.34476 7.67584C3.48541 7.81649 3.67618 7.89551 3.87509 7.89551C4.074 7.89551 4.26477 7.81649 4.40542 7.67584C4.54607 7.53519 4.62509 7.34442 4.62509 7.14551C4.62509 6.9466 4.54607 6.75583 4.40542 6.61518C4.26477 6.47453 4.074 6.39551 3.87509 6.39551C3.67618 6.39551 3.48541 6.47453 3.34476 6.61518C3.20411 6.75583 3.12509 6.9466 3.12509 7.14551ZM13.4563 4.43301C13.1032 3.59395 12.597 2.84082 11.9517 2.19395C11.3109 1.55081 10.5501 1.0396 9.71259 0.689258C8.85321 0.32832 7.94071 0.145508 7.00009 0.145508H6.96884C6.02196 0.150195 5.10478 0.337695 4.24228 0.706445C3.4119 1.06038 2.65831 1.5725 2.02353 2.21426C1.38446 2.85957 0.882901 3.60957 0.536026 4.44551C0.176651 5.31113 -0.00459886 6.23144 8.86448e-05 7.17832C0.0053906 8.26343 0.262107 9.33255 0.750089 10.3018V12.6768C0.750089 12.8674 0.825814 13.0502 0.960606 13.185C1.0954 13.3198 1.27821 13.3955 1.46884 13.3955H3.8454C4.81461 13.8835 5.88373 14.1402 6.96884 14.1455H7.00165C7.93759 14.1455 8.8454 13.9643 9.70009 13.6096C10.5334 13.2634 11.2913 12.7581 11.9313 12.1221C12.5767 11.483 13.0845 10.7361 13.4392 9.90332C13.8079 9.04082 13.9954 8.12363 14.0001 7.17676C14.0048 6.2252 13.8204 5.30176 13.4563 4.43301ZM11.0954 11.2768C10.0001 12.3611 8.54696 12.958 7.00009 12.958H6.97353C6.03134 12.9533 5.0954 12.7189 4.26884 12.2783L4.13759 12.208H1.93759V10.008L1.86728 9.87676C1.42665 9.05019 1.19228 8.11426 1.18759 7.17207C1.18134 5.61426 1.77665 4.15176 2.86884 3.0502C3.95946 1.94863 5.41728 1.33926 6.97509 1.33301H7.00165C7.7829 1.33301 8.54071 1.48457 9.25478 1.78457C9.95165 2.07676 10.5767 2.49707 11.1142 3.03457C11.6501 3.57051 12.072 4.19707 12.3642 4.89395C12.6673 5.61582 12.8188 6.38145 12.8157 7.17207C12.8063 8.72832 12.1954 10.1861 11.0954 11.2768Z" fill="#1E293B"/>
</g>
<defs>
<clipPath id="clip0_105_1054">
<rect width="14" height="14" fill="white" transform="translate(0 0.145508)"/>
</clipPath>
</defs>
</svg>
