<svg width="16" height="16" viewBox="0 0 16 16" fill="none" xmlns="http://www.w3.org/2000/svg">
<path d="M8 0C3.58791 0 0 3.58792 0 8C0 12.4121 3.58791 16 8 16C12.4121 16 16 12.4121 16 8C16 3.58792 12.4121 0 8 0ZM8 1.04348C11.8482 1.04348 14.9565 4.15186 14.9565 8C14.9565 11.8482 11.8482 14.9565 8 14.9565C4.15184 14.9565 1.04348 11.8482 1.04348 8C1.04348 4.15186 4.15184 1.04348 8 1.04348ZM8 2.26087C7.71186 2.26087 7.47826 2.49447 7.47826 2.78261V8C7.47826 8.28816 7.71186 8.52174 8 8.52174H12.8696C13.1577 8.52174 13.3913 8.28816 13.3913 8C13.3913 7.71186 13.1577 7.47826 12.8696 7.47826H8.52174V2.78261C8.52174 2.49447 8.28816 2.26087 8 2.26087Z" fill="white"/>
</svg>
