<svg width="17" height="17" viewBox="0 0 17 17" fill="none" xmlns="http://www.w3.org/2000/svg">
<g clip-path="url(#clip0_86_1145)">
<path d="M8.5 0.5C4.08214 0.5 0.5 4.08214 0.5 8.5C0.5 12.9179 4.08214 16.5 8.5 16.5C12.9179 16.5 16.5 12.9179 16.5 8.5C16.5 4.08214 12.9179 0.5 8.5 0.5ZM8.5 15.1429C4.83214 15.1429 1.85714 12.1679 1.85714 8.5C1.85714 4.83214 4.83214 1.85714 8.5 1.85714C12.1679 1.85714 15.1429 4.83214 15.1429 8.5C15.1429 12.1679 12.1679 15.1429 8.5 15.1429Z" fill="#8B0203"/>
<path d="M11.6195 10.761L9.07311 8.91992V4.50028C9.07311 4.42171 9.00882 4.35742 8.93025 4.35742H8.07132C7.99275 4.35742 7.92847 4.42171 7.92847 4.50028V9.41814C7.92847 9.46457 7.9499 9.50742 7.9874 9.53421L10.941 11.6878C11.0053 11.7342 11.0945 11.7199 11.141 11.6574L11.6517 10.961C11.6981 10.8949 11.6838 10.8056 11.6195 10.761Z" fill="#8B0203"/>
</g>
<defs>
<clipPath id="clip0_86_1145">
<rect width="16" height="16" fill="white" transform="translate(0.5 0.5)"/>
</clipPath>
</defs>
</svg>
