<svg width="12" height="12" viewBox="0 0 12 12" fill="none" xmlns="http://www.w3.org/2000/svg">
<path d="M2.5313 1.94365L3.21723 1.25771C3.23376 1.24111 3.24529 1.2202 3.25051 1.19737C3.25574 1.17453 3.25446 1.15069 3.24681 1.12855C3.23916 1.10641 3.22545 1.08686 3.20724 1.07213C3.18902 1.0574 3.16704 1.04807 3.1438 1.04521L0.640671 0.749899C0.560983 0.740524 0.492233 0.807712 0.501608 0.888962L0.796921 3.39209C0.809421 3.49521 0.935983 3.53896 1.00942 3.46552L1.69223 2.78271L3.7813 4.87021C3.82973 4.91865 3.90942 4.91865 3.95786 4.87021L4.62036 4.20927C4.6688 4.16084 4.6688 4.08115 4.62036 4.03271L2.5313 1.94365ZM8.04223 4.87021C8.09067 4.91865 8.17036 4.91865 8.2188 4.87021L10.3079 2.78271L10.9907 3.46552C11.0073 3.48205 11.0282 3.49358 11.051 3.49881C11.0738 3.50403 11.0977 3.50275 11.1198 3.4951C11.142 3.48745 11.1615 3.47374 11.1763 3.45553C11.191 3.43732 11.2003 3.41534 11.2032 3.39209L11.4985 0.890524C11.5079 0.810837 11.4407 0.742087 11.3594 0.751462L8.8563 1.04677C8.75317 1.05927 8.70942 1.18584 8.78286 1.25927L9.4688 1.94521L7.37973 4.03115C7.35647 4.05464 7.34342 4.08637 7.34342 4.11943C7.34342 4.15249 7.35647 4.18422 7.37973 4.20771L8.04223 4.87021ZM11.2032 9.10771C11.1907 9.00459 11.0641 8.96084 10.9907 9.03427L10.3079 9.71709L8.2188 7.62959C8.1953 7.60632 8.16358 7.59327 8.13051 7.59327C8.09745 7.59327 8.06573 7.60632 8.04223 7.62959L7.37973 8.29052C7.35647 8.31402 7.34342 8.34574 7.34342 8.37881C7.34342 8.41187 7.35647 8.44359 7.37973 8.46709L9.4688 10.5561L8.78286 11.2421C8.76634 11.2587 8.7548 11.2796 8.74958 11.3024C8.74435 11.3253 8.74563 11.3491 8.75328 11.3712C8.76093 11.3934 8.77465 11.4129 8.79286 11.4277C8.81107 11.4424 8.83305 11.4517 8.8563 11.4546L11.3594 11.7499C11.4391 11.7593 11.5079 11.6921 11.4985 11.6108L11.2032 9.10771ZM3.95786 7.62959C3.93436 7.60632 3.90264 7.59327 3.86958 7.59327C3.83651 7.59327 3.80479 7.60632 3.7813 7.62959L1.69223 9.71709L1.00942 9.03427C0.992817 9.01775 0.971909 9.00622 0.949075 9.00099C0.926242 8.99576 0.9024 8.99705 0.880261 9.0047C0.858121 9.01235 0.838573 9.02606 0.82384 9.04427C0.809107 9.06248 0.79978 9.08446 0.796921 9.10771L0.501608 11.6093C0.492233 11.689 0.559421 11.7577 0.640671 11.7483L3.1438 11.453C3.24692 11.4405 3.29067 11.314 3.21723 11.2405L2.5313 10.5561L4.62036 8.46865C4.6688 8.42021 4.6688 8.34052 4.62036 8.29209L3.95786 7.62959Z" fill="#3A3A3A"/>
</svg>
