<svg width="19" height="22" viewBox="0 0 19 22" fill="none" xmlns="http://www.w3.org/2000/svg">
<path fill-rule="evenodd" clip-rule="evenodd" d="M9.62633 8.22633V6.39501C6.69528 6.39036 4.07777 8.49575 3.52501 11.5081C2.97805 14.4844 4.6108 17.4213 7.40714 18.492C8.20726 18.7986 8.60906 19.6997 8.30597 20.508C8.03655 21.2256 7.29914 21.6263 6.57799 21.4915C6.48741 21.4753 6.39683 21.4497 6.30858 21.4161C2.11058 19.8112 -0.34087 15.4042 0.48015 10.9402C1.3093 6.42404 5.23324 3.27815 9.62633 3.28396V1.76617C9.62633 1.03806 10.5426 0.662965 11.0977 1.1658L14.6674 4.3953C15.0286 4.72277 15.0286 5.2709 14.6674 5.59837L11.0977 8.82787C10.5426 9.32954 9.62633 8.95561 9.62633 8.22633ZM11.6737 18.5419C11.4437 18.6255 11.2068 18.6952 10.9676 18.7486C10.1326 18.9356 9.60427 19.7705 9.78891 20.6136C9.9271 21.2454 10.4264 21.7017 11.0187 21.8132C11.2173 21.8492 11.4263 21.8481 11.6353 21.8016C12 21.7192 12.3588 21.6146 12.7095 21.4892C13.5143 21.2001 13.937 20.3047 13.6513 19.4918C13.3645 18.6778 12.4773 18.2528 11.6737 18.5419ZM14.7522 16.1369C14.686 16.2368 14.6175 16.3343 14.5443 16.4296C14.0229 17.1136 14.1483 18.0948 14.8265 18.622C15.0286 18.7777 15.2539 18.8764 15.4884 18.9193C16.0412 19.0227 16.6311 18.8171 16.9993 18.3352C17.1096 18.1889 17.2176 18.0379 17.3209 17.8835C17.7982 17.167 17.6112 16.1961 16.9029 15.7131C16.1933 15.2335 15.2306 15.4204 14.7522 16.1369ZM17.3952 11.3409C16.5405 11.3176 15.8275 12.0295 15.8055 12.8935C15.7846 13.6704 16.3304 14.3184 17.0643 14.4554C17.1432 14.4705 17.2257 14.4798 17.3082 14.4809C18.1617 14.5065 18.8747 13.8132 18.9014 12.9504C18.9014 12.9481 18.9026 12.9167 18.9026 12.9144C18.9258 12.0504 18.2441 11.356 17.3952 11.3409Z" fill="#8B0203"/>
</svg>
