<svg width="16" height="17" viewBox="0 0 16 17" fill="none" xmlns="http://www.w3.org/2000/svg">
<path d="M14.3749 7.58711L7.62847 1.73175C7.57668 1.68711 7.51061 1.66211 7.44097 1.66211H5.86061C5.72847 1.66211 5.66775 1.8264 5.76775 1.91211L12.0213 7.34068H1.57132C1.49275 7.34068 1.42847 7.40497 1.42847 7.48354V8.55497C1.42847 8.63354 1.49275 8.69782 1.57132 8.69782H12.0195L5.76597 14.1264C5.66597 14.2139 5.72668 14.3764 5.85882 14.3764H7.49275C7.52668 14.3764 7.56061 14.3639 7.58561 14.3407L14.3749 8.4514C14.4367 8.39764 14.4863 8.33124 14.5202 8.25669C14.5542 8.18215 14.5718 8.10118 14.5718 8.01925C14.5718 7.93733 14.5542 7.85636 14.5202 7.78181C14.4863 7.70726 14.4367 7.64087 14.3749 7.58711Z" fill="#334155"/>
</svg>
