<svg width="14" height="15" viewBox="0 0 14 15" fill="none" xmlns="http://www.w3.org/2000/svg">
<path d="M6.53125 1.625H7.46875C7.55208 1.625 7.59375 1.66667 7.59375 1.75V12.75C7.59375 12.8333 7.55208 12.875 7.46875 12.875H6.53125C6.44792 12.875 6.40625 12.8333 6.40625 12.75V1.75C6.40625 1.66667 6.44792 1.625 6.53125 1.625Z" fill="#8B0203"/>
<path d="M1.75 6.65625H12.25C12.3333 6.65625 12.375 6.69792 12.375 6.78125V7.71875C12.375 7.80208 12.3333 7.84375 12.25 7.84375H1.75C1.66667 7.84375 1.625 7.80208 1.625 7.71875V6.78125C1.625 6.69792 1.66667 6.65625 1.75 6.65625Z" fill="#8B0203"/>
</svg>
