<svg width="24" height="24" viewBox="0 0 24 24" fill="none" xmlns="http://www.w3.org/2000/svg">
<path fill-rule="evenodd" clip-rule="evenodd" d="M12.0003 8.5918C10.2357 8.5918 8.80518 10.0223 8.80518 11.787C8.80518 13.5516 10.2357 14.9821 12.0003 14.9821C13.765 14.9821 15.1955 13.5516 15.1955 11.787C15.1955 10.0223 13.765 8.5918 12.0003 8.5918ZM10.4028 11.787C10.4028 10.9046 11.118 10.1894 12.0003 10.1894C12.8827 10.1894 13.5979 10.9046 13.5979 11.787C13.5979 12.6693 12.8827 13.3845 12.0003 13.3845C11.118 13.3845 10.4028 12.6693 10.4028 11.787Z" fill="black"/>
<path fill-rule="evenodd" clip-rule="evenodd" d="M14.5072 5.23226C14.1675 2.25592 9.83252 2.2559 9.49281 5.23226L9.42185 5.85396C9.35211 6.46498 8.70596 6.84201 8.13158 6.59304L7.55569 6.34341C4.82839 5.16124 2.61032 8.87814 5.0506 10.6763L5.55554 11.0484C6.05439 11.416 6.05439 12.1575 5.55554 12.525L5.0506 12.8971C2.61034 14.6952 4.82837 18.4122 7.55569 17.23L8.13158 16.9804C8.70596 16.7314 9.35211 17.1085 9.42185 17.7194L9.49281 18.3412C9.83252 21.3175 14.1675 21.3175 14.5072 18.3412L14.5781 17.7194C14.6479 17.1085 15.2941 16.7314 15.8683 16.9804L16.4443 17.23C19.1716 18.4121 21.3897 14.6952 18.9494 12.8971L18.4444 12.525C17.9456 12.1574 17.9456 11.416 18.4444 11.0484L18.9494 10.6763C21.3897 8.87815 19.1716 5.16123 16.4443 6.34341L15.8685 6.59304C15.2941 6.84201 14.6479 6.46498 14.5781 5.85397L14.5072 5.23226ZM11.0801 5.41343C11.2042 4.32564 12.7957 4.32563 12.9199 5.41343L12.9909 6.03513C13.1831 7.7194 14.952 8.73149 16.5037 8.05884L17.0797 7.80921C18.1171 7.35954 18.8623 8.75602 18.0017 9.39017L17.4968 9.76224C16.1313 10.7683 16.1313 12.8051 17.4968 13.8112L18.0017 14.1832C18.8623 14.8174 18.1171 16.2139 17.0797 15.7642L16.5037 15.5145C14.952 14.8419 13.1831 15.854 12.9909 17.5383L12.9199 18.16C12.7957 19.2477 11.2042 19.2478 11.0801 18.16L11.0091 17.5383C10.8169 15.854 9.04803 14.8419 7.49622 15.5145L6.92031 15.7642C5.88291 16.2139 5.1377 14.8174 5.99831 14.1832L6.50325 13.8112C7.8686 12.8051 7.86859 10.7683 6.50325 9.76224L5.99829 9.39016C5.13771 8.75603 5.8829 7.35953 6.92032 7.80922L7.49622 8.05884C9.04803 8.73149 10.8169 7.7194 11.0091 6.03513L11.0801 5.41343Z" fill="black"/>
</svg>
