<svg width="15" height="15" viewBox="0 0 15 15" fill="none" xmlns="http://www.w3.org/2000/svg">
<path d="M5.75 4.46905H6.90469V9.75499C6.90469 9.82374 6.96094 9.87999 7.02969 9.87999H7.96719C8.03594 9.87999 8.09219 9.82374 8.09219 9.75499V4.46905H9.25C9.35469 4.46905 9.4125 4.34874 9.34844 4.26749L7.59844 2.05187C7.58674 2.03693 7.5718 2.02484 7.55475 2.01653C7.53769 2.00822 7.51897 2.00391 7.5 2.00391C7.48103 2.00391 7.46231 2.00822 7.44525 2.01653C7.42819 2.02484 7.41326 2.03693 7.40156 2.05187L5.65156 4.26593C5.5875 4.34874 5.64531 4.46905 5.75 4.46905ZM13.2188 9.28624H12.2812C12.2125 9.28624 12.1562 9.34249 12.1562 9.41124V11.8175H2.84375V9.41124C2.84375 9.34249 2.7875 9.28624 2.71875 9.28624H1.78125C1.7125 9.28624 1.65625 9.34249 1.65625 9.41124V12.505C1.65625 12.7816 1.87969 13.005 2.15625 13.005H12.8438C13.1203 13.005 13.3438 12.7816 13.3438 12.505V9.41124C13.3438 9.34249 13.2875 9.28624 13.2188 9.28624Z" fill="#444444"/>
</svg>
