<svg width="14" height="11" viewBox="0 0 14 11" fill="none" xmlns="http://www.w3.org/2000/svg">
<path d="M13.722 4.84688C12.2407 1.72656 10.0017 0.15625 7.00009 0.15625C3.99697 0.15625 1.75947 1.72656 0.278215 4.84844C0.218802 4.97425 0.187988 5.11165 0.187988 5.25078C0.187988 5.38991 0.218802 5.52732 0.278215 5.65312C1.75947 8.77344 3.99853 10.3438 7.00009 10.3438C10.0032 10.3438 12.2407 8.77344 13.722 5.65156C13.8423 5.39844 13.8423 5.10469 13.722 4.84688ZM7.00009 9.21875C4.47978 9.21875 2.63447 7.94063 1.3329 5.25C2.63447 2.55938 4.47978 1.28125 7.00009 1.28125C9.5204 1.28125 11.3657 2.55938 12.6673 5.25C11.3673 7.94063 9.52197 9.21875 7.00009 9.21875ZM6.93759 2.5C5.41884 2.5 4.18759 3.73125 4.18759 5.25C4.18759 6.76875 5.41884 8 6.93759 8C8.45634 8 9.68759 6.76875 9.68759 5.25C9.68759 3.73125 8.45634 2.5 6.93759 2.5ZM6.93759 7C5.9704 7 5.18759 6.21719 5.18759 5.25C5.18759 4.28281 5.9704 3.5 6.93759 3.5C7.90478 3.5 8.68759 4.28281 8.68759 5.25C8.68759 6.21719 7.90478 7 6.93759 7Z" fill="#3A3A3A"/>
</svg>
