<svg width="32" height="33" viewBox="0 0 32 33" fill="none" xmlns="http://www.w3.org/2000/svg">
<path d="M10.115 5.95786C9.50809 5.95786 9.01153 6.45441 9.01153 7.0613V8.91142L8.70625 8.96291C6.75314 9.29395 5.33337 10.9675 5.33337 12.9464V23.9808C5.33337 26.2135 7.14671 28.0268 9.37935 28.0268H18.9426C19.5495 28.0268 20.046 27.5303 20.046 26.9234C20.046 26.3165 19.5495 25.8199 18.9426 25.8199H9.37935C8.36418 25.8199 7.54027 24.996 7.54027 23.9808V16.9923H24.4598V20.3027C24.4598 20.9096 24.9564 21.4061 25.5633 21.4061C26.1702 21.4061 26.6667 20.9096 26.6667 20.3027V12.9464C26.6667 10.9675 25.2469 9.29027 23.2938 8.96291L22.9885 8.91142V7.0613C22.9885 6.45441 22.492 5.95786 21.8851 5.95786C21.2782 5.95786 20.7816 6.45441 20.7816 7.0613V8.90038H17.1035V7.0613C17.1035 6.45441 16.6069 5.95786 16 5.95786C15.3931 5.95786 14.8966 6.45441 14.8966 7.0613V8.90038H11.2184V7.0613C11.2184 6.45441 10.7219 5.95786 10.115 5.95786ZM22.6207 11.1073C23.6359 11.1073 24.4598 11.9312 24.4598 12.9464V14.7854H7.54027V12.9464C7.54027 11.9312 8.36418 11.1073 9.37935 11.1073H22.6207Z" fill="white"/>
<path d="M24.8276 27.659C25.6401 27.659 26.2989 27.0003 26.2989 26.1877C26.2989 25.3752 25.6401 24.7165 24.8276 24.7165C24.015 24.7165 23.3563 25.3752 23.3563 26.1877C23.3563 27.0003 24.015 27.659 24.8276 27.659Z" fill="white"/>
</svg>
