<svg width="18" height="17" viewBox="0 0 18 17" fill="none" xmlns="http://www.w3.org/2000/svg">
<path fill-rule="evenodd" clip-rule="evenodd" d="M0.666748 8.50033C0.666748 3.89795 4.39771 0.166992 9.00008 0.166992C13.6024 0.166992 17.3334 3.89795 17.3334 8.50033C17.3334 13.1027 13.6024 16.8337 9.00008 16.8337C7.89316 16.8337 6.83466 16.6174 5.86609 16.224C5.77861 16.1885 5.7281 16.1681 5.69081 16.1541C5.6864 16.1524 5.68256 16.151 5.67929 16.1498L5.67532 16.1503C5.64457 16.1545 5.60266 16.1614 5.52262 16.1747L2.55771 16.6689C2.5498 16.6702 2.54181 16.6716 2.53378 16.6729C2.39992 16.6952 2.25017 16.7202 2.12011 16.7301C1.9783 16.7407 1.75268 16.7445 1.51425 16.6422C1.21949 16.5158 0.984615 16.2809 0.85819 15.9862C0.755923 15.7477 0.759648 15.5221 0.770356 15.3803C0.780173 15.2502 0.805181 15.1005 0.827531 14.9667C0.828873 14.9586 0.830206 14.9506 0.831523 14.9427L1.32567 11.9778C1.33901 11.8977 1.34591 11.8558 1.35008 11.8251L1.35061 11.8211C1.34941 11.8178 1.34801 11.814 1.34635 11.8096C1.33235 11.7723 1.31191 11.7218 1.27638 11.6343C0.883015 10.6657 0.666748 9.60724 0.666748 8.50033ZM9.00008 1.83366C5.31818 1.83366 2.33341 4.81843 2.33341 8.50033C2.33341 9.38866 2.50671 10.2344 2.82056 11.0072C2.82551 11.0194 2.83062 11.0319 2.83583 11.0447C2.88671 11.1692 2.94722 11.3174 2.97823 11.4558C3.00641 11.5815 3.01857 11.6913 3.01859 11.8201C3.01861 11.9615 2.99451 12.1043 2.97506 12.2197C2.97321 12.2307 2.97141 12.2413 2.96966 12.2517L2.51387 14.9865L5.24862 14.5307C5.25906 14.529 5.26979 14.5272 5.28076 14.5253C5.39605 14.5059 5.53896 14.4818 5.6803 14.4818C5.8091 14.4818 5.91894 14.494 6.04461 14.5222C6.18297 14.5532 6.33115 14.6137 6.45576 14.6646C6.46851 14.6698 6.48101 14.6749 6.49322 14.6798C7.26601 14.9937 8.11175 15.167 9.00008 15.167C12.682 15.167 15.6667 12.1822 15.6667 8.50033C15.6667 4.81843 12.682 1.83366 9.00008 1.83366ZM4.00008 8.50033C4.00008 7.80999 4.55972 7.25033 5.25008 7.25033C5.94044 7.25033 6.50008 7.80999 6.50008 8.50033C6.50008 9.19066 5.94044 9.75033 5.25008 9.75033C4.55972 9.75033 4.00008 9.19066 4.00008 8.50033ZM7.75008 8.50033C7.75008 7.80999 8.30975 7.25033 9.00008 7.25033C9.69041 7.25033 10.2501 7.80999 10.2501 8.50033C10.2501 9.19066 9.69041 9.75033 9.00008 9.75033C8.30975 9.75033 7.75008 9.19066 7.75008 8.50033ZM11.5001 8.50033C11.5001 7.80999 12.0597 7.25033 12.7501 7.25033C13.4404 7.25033 14.0001 7.80999 14.0001 8.50033C14.0001 9.19066 13.4404 9.75033 12.7501 9.75033C12.0597 9.75033 11.5001 9.19066 11.5001 8.50033Z" fill="#8B0203"/>
</svg>
