<svg width="32" height="33" viewBox="0 0 32 33" fill="none" xmlns="http://www.w3.org/2000/svg">
<path fill-rule="evenodd" clip-rule="evenodd" d="M16.0006 12.0799C13.6477 12.0799 11.7404 13.9873 11.7404 16.3401C11.7404 18.693 13.6477 20.6003 16.0006 20.6003C18.3534 20.6003 20.2608 18.693 20.2608 16.3401C20.2608 13.9873 18.3534 12.0799 16.0006 12.0799ZM13.8705 16.3401C13.8705 15.1637 14.8242 14.21 16.0006 14.21C17.177 14.21 18.1307 15.1637 18.1307 16.3401C18.1307 17.5165 17.177 18.4702 16.0006 18.4702C14.8242 18.4702 13.8705 17.5165 13.8705 16.3401Z" fill="white"/>
<path fill-rule="evenodd" clip-rule="evenodd" d="M19.343 7.60086C18.89 3.63241 13.1101 3.63238 12.6571 7.60086L12.5625 8.4298C12.4695 9.24448 11.608 9.74719 10.8422 9.41523L10.0743 9.08239C6.43789 7.50617 3.48047 12.462 6.73418 14.8596L7.40743 15.3557C8.07257 15.8458 8.07257 16.8344 7.40743 17.3246L6.73418 17.8207C3.48049 20.2181 6.43787 25.1741 10.0743 23.5978L10.8422 23.265C11.608 22.933 12.4695 23.4358 12.5625 24.2504L12.6571 25.0794C13.1101 29.0478 18.89 29.0478 19.343 25.0794L19.4376 24.2504C19.5305 23.4358 20.3921 22.933 21.1578 23.265L21.9258 23.5978C25.5622 25.174 28.5196 20.2181 25.2659 17.8207L24.5926 17.3246C23.9276 16.8344 23.9276 15.8458 24.5926 15.3557L25.2659 14.8596C28.5196 12.462 25.5622 7.50615 21.9258 9.08239L21.158 9.41523C20.3921 9.74719 19.5305 9.24448 19.4376 8.42981L19.343 7.60086ZM14.7735 7.84241C14.939 6.39203 17.061 6.39202 17.2266 7.84241L17.3212 8.67135C17.5775 10.917 19.936 12.2665 22.005 11.3696L22.773 11.0368C24.1562 10.4372 25.1497 12.2992 24.0023 13.1447L23.3291 13.6408C21.5085 14.9823 21.5085 17.698 23.3291 19.0394L24.0023 19.5355C25.1497 20.3811 24.1562 22.243 22.773 21.6435L22.005 21.3105C19.936 20.4137 17.5775 21.7631 17.3212 24.0089L17.2266 24.8378C17.061 26.2881 14.939 26.2883 14.7735 24.8378L14.6789 24.0089C14.4226 21.7631 12.0641 20.4137 9.995 21.3105L9.22712 21.6435C7.84392 22.243 6.8503 20.3811 7.99778 19.5355L8.67104 19.0394C10.4915 17.6979 10.4915 14.9823 8.67104 13.6408L7.99777 13.1447C6.85032 12.2992 7.8439 10.4372 9.22714 11.0368L9.995 11.3696C12.0641 12.2665 14.4226 10.917 14.6789 8.67135L14.7735 7.84241Z" fill="white"/>
</svg>
