<svg width="18" height="19" viewBox="0 0 18 19" fill="none" xmlns="http://www.w3.org/2000/svg">
<path d="M15.9609 14.3045C15.5819 13.4068 15.032 12.5914 14.3417 11.9038C13.6535 11.2141 12.8383 10.6643 11.941 10.2846C11.933 10.2806 11.925 10.2786 11.9169 10.2745C13.1685 9.37053 13.9821 7.89798 13.9821 6.2366C13.9821 3.48437 11.7522 1.25446 8.99997 1.25446C6.24774 1.25446 4.01783 3.48437 4.01783 6.2366C4.01783 7.89798 4.83144 9.37053 6.08301 10.2766C6.07497 10.2806 6.06694 10.2826 6.0589 10.2866C5.1589 10.6663 4.35131 11.2107 3.65823 11.9058C2.96858 12.594 2.41873 13.4092 2.03903 14.3065C1.66602 15.1849 1.46485 16.1266 1.4464 17.0808C1.44586 17.1022 1.44962 17.1236 1.45746 17.1435C1.4653 17.1635 1.47705 17.1817 1.49203 17.197C1.50701 17.2124 1.5249 17.2246 1.54467 17.2329C1.56443 17.2412 1.58567 17.2455 1.60711 17.2455H2.81247C2.90086 17.2455 2.97118 17.1752 2.97319 17.0888C3.01336 15.5379 3.63613 14.0855 4.73703 12.9846C5.87609 11.8455 7.38881 11.2187 8.99997 11.2187C10.6111 11.2187 12.1239 11.8455 13.2629 12.9846C14.3638 14.0855 14.9866 15.5379 15.0268 17.0888C15.0288 17.1772 15.0991 17.2455 15.1875 17.2455H16.3928C16.4143 17.2455 16.4355 17.2412 16.4553 17.2329C16.475 17.2246 16.4929 17.2124 16.5079 17.197C16.5229 17.1817 16.5346 17.1635 16.5425 17.1435C16.5503 17.1236 16.5541 17.1022 16.5535 17.0808C16.5335 16.1205 16.3346 15.1864 15.9609 14.3045ZM8.99997 9.69196C8.07787 9.69196 7.21002 9.33236 6.55711 8.67946C5.90421 8.02655 5.54461 7.1587 5.54461 6.2366C5.54461 5.3145 5.90421 4.44664 6.55711 3.79374C7.21002 3.14084 8.07787 2.78124 8.99997 2.78124C9.92207 2.78124 10.7899 3.14084 11.4428 3.79374C12.0957 4.44664 12.4553 5.3145 12.4553 6.2366C12.4553 7.1587 12.0957 8.02655 11.4428 8.67946C10.7899 9.33236 9.92207 9.69196 8.99997 9.69196Z" fill="white"/>
</svg>
