<svg width="16" height="19" viewBox="0 0 16 19" fill="none" xmlns="http://www.w3.org/2000/svg">
<path fill-rule="evenodd" clip-rule="evenodd" d="M5.9735 0.33301C5.98235 0.33301 5.99121 0.333018 6.00007 0.333018L10.0267 0.33301C10.237 0.332987 10.4418 0.332962 10.6153 0.347135C10.8058 0.362701 11.0305 0.399418 11.2568 0.514668C11.5703 0.67446 11.8253 0.929426 11.9851 1.24303C12.1003 1.46922 12.1371 1.69399 12.1526 1.88449C12.1558 1.9236 12.1583 1.96431 12.1602 2.00632C12.4895 2.01694 12.7715 2.04415 13.0295 2.11326C14.1798 2.42148 15.0783 3.31998 15.3865 4.47028C15.5008 4.89666 15.5005 5.38888 15.5001 6.0517C15.5001 6.08936 15.5001 6.12757 15.5001 6.16635V13.8674C15.5001 14.5383 15.5001 15.0918 15.4633 15.5428C15.425 16.0113 15.3428 16.4418 15.1368 16.8463C14.8172 17.4735 14.3073 17.9834 13.68 18.303C13.2756 18.5091 12.845 18.5913 12.3766 18.6295C11.9256 18.6663 11.372 18.6663 10.7012 18.6663H5.29897C4.62817 18.6663 4.07455 18.6663 3.62356 18.6295C3.15514 18.5913 2.72456 18.5091 2.32011 18.303C1.6929 17.9834 1.18297 17.4735 0.863391 16.8463C0.657316 16.4418 0.575174 16.0113 0.536907 15.5428C0.500057 15.0918 0.500066 14.5383 0.500074 13.8674V6.16635C0.500074 6.12757 0.500057 6.08936 0.500041 6.05169C0.499674 5.38888 0.499407 4.89666 0.613657 4.47028C0.921882 3.31998 1.82037 2.42148 2.97068 2.11326C3.22861 2.04415 3.51063 2.01694 3.83995 2.00631C3.84187 1.96431 3.84433 1.9236 3.84753 1.88449C3.8631 1.69399 3.89982 1.46922 4.01507 1.24303C4.17486 0.929426 4.42982 0.67446 4.74342 0.514668C4.96962 0.399418 5.19439 0.362701 5.38488 0.347135C5.55835 0.332962 5.76317 0.332987 5.9735 0.33301ZM3.84064 3.67431C3.6214 3.6819 3.50214 3.69632 3.40205 3.72313C2.82689 3.87725 2.37765 4.32649 2.22353 4.90165C2.1739 5.08688 2.16674 5.33772 2.16674 6.16635V13.833C2.16674 14.5468 2.16739 15.0321 2.19804 15.4072C2.22789 15.7725 2.28199 15.9593 2.3484 16.0897C2.50819 16.4033 2.76316 16.6583 3.07676 16.818C3.20709 16.8844 3.39393 16.9385 3.75927 16.9684C4.13435 16.999 4.61959 16.9997 5.33341 16.9997H10.6668C11.3806 16.9997 11.8658 16.999 12.2408 16.9684C12.6063 16.9385 12.7931 16.8844 12.9234 16.818C13.237 16.6583 13.4919 16.4033 13.6518 16.0897C13.7182 15.9593 13.7723 15.7725 13.8021 15.4072C13.8328 15.0321 13.8334 14.5468 13.8334 13.833V6.16635C13.8334 5.33772 13.8263 5.08688 13.7766 4.90165C13.6225 4.32649 13.1733 3.87725 12.5981 3.72313C12.498 3.69632 12.3788 3.6819 12.1595 3.67431C12.1577 3.71116 12.1554 3.74698 12.1526 3.78154C12.1371 3.97203 12.1003 4.19681 11.9851 4.423C11.8253 4.7366 11.5703 4.99157 11.2568 5.15136C11.0305 5.26661 10.8058 5.30333 10.6153 5.31889C10.4418 5.33307 10.237 5.33304 10.0267 5.33302H6.00007C5.99121 5.33302 5.98235 5.33302 5.9735 5.33302C5.76317 5.33304 5.55835 5.33307 5.38488 5.31889C5.19439 5.30333 4.96962 5.26661 4.74342 5.15136C4.42982 4.99157 4.17486 4.7366 4.01507 4.423C3.89982 4.19681 3.8631 3.97203 3.84753 3.78154C3.84471 3.74698 3.84245 3.71116 3.84064 3.67431ZM10.5001 2.49968C10.5001 2.25258 10.4994 2.11736 10.4915 2.02021C10.4912 2.01634 10.4908 2.01268 10.4905 2.00922C10.4871 2.0089 10.4834 2.00858 10.4795 2.00827C10.3824 2.00033 10.2472 1.99968 10.0001 1.99968H6.00007C5.75297 1.99968 5.61776 2.00033 5.52061 2.00827C5.51674 2.00858 5.51307 2.0089 5.50962 2.00922C5.5093 2.01268 5.50898 2.01634 5.50867 2.02021C5.50072 2.11736 5.50007 2.25258 5.50007 2.49968V3.16635C5.50007 3.41345 5.50072 3.54867 5.50867 3.64582C5.50898 3.64968 5.5093 3.65335 5.50962 3.65681C5.51307 3.65713 5.51674 3.65744 5.52061 3.65776C5.61776 3.6657 5.75297 3.66635 6.00007 3.66635H10.0001C10.2472 3.66635 10.3824 3.6657 10.4795 3.65776C10.4834 3.65744 10.4871 3.65713 10.4905 3.65681C10.4908 3.65335 10.4912 3.64968 10.4915 3.64582C10.4994 3.54867 10.5001 3.41345 10.5001 3.16635V2.49968ZM11.506 9.32709C11.8314 9.65251 11.8314 10.1802 11.506 10.5056L7.75602 14.2556C7.4306 14.581 6.90293 14.581 6.57752 14.2556L4.91082 12.5889C4.58538 12.2635 4.58538 11.7358 4.91082 11.4104C5.23626 11.085 5.7639 11.085 6.08933 11.4104L7.16677 12.4878L10.3275 9.32709C10.6529 9.00168 11.1806 9.00168 11.506 9.32709Z" fill="#8B0203"/>
</svg>
