<svg width="32" height="32" viewBox="0 0 32 32" fill="none" xmlns="http://www.w3.org/2000/svg">
<rect width="32" height="32" rx="4" fill="#8B0203"/>
<path d="M22.9608 20.3049C22.5819 19.4072 22.0319 18.5919 21.3417 17.9042C20.6535 17.2146 19.8382 16.6647 18.941 16.285C18.9329 16.281 18.9249 16.279 18.9169 16.275C20.1684 15.371 20.9821 13.8984 20.9821 12.237C20.9821 9.48479 18.7521 7.25488 15.9999 7.25488C13.2477 7.25488 11.0178 9.48479 11.0178 12.237C11.0178 13.8984 11.8314 15.371 13.0829 16.277C13.0749 16.281 13.0669 16.283 13.0588 16.287C12.1588 16.6667 11.3513 17.2111 10.6582 17.9062C9.96852 18.5944 9.41867 19.4096 9.03897 20.3069C8.66596 21.1853 8.46479 22.1271 8.44634 23.0812C8.4458 23.1027 8.44956 23.124 8.4574 23.144C8.46524 23.1639 8.47699 23.1821 8.49197 23.1975C8.50694 23.2128 8.52484 23.225 8.54461 23.2333C8.56437 23.2417 8.58561 23.246 8.60705 23.246H9.81241C9.9008 23.246 9.97112 23.1756 9.97312 23.0893C10.0133 21.5384 10.6361 20.0859 11.737 18.985C12.876 17.846 14.3888 17.2192 15.9999 17.2192C17.6111 17.2192 19.1238 17.846 20.2629 18.985C21.3638 20.0859 21.9865 21.5384 22.0267 23.0893C22.0287 23.1777 22.099 23.246 22.1874 23.246H23.3928C23.4142 23.246 23.4354 23.2417 23.4552 23.2333C23.475 23.225 23.4929 23.2128 23.5079 23.1975C23.5228 23.1821 23.5346 23.1639 23.5424 23.144C23.5503 23.124 23.554 23.1027 23.5535 23.0812C23.5334 22.121 23.3345 21.1868 22.9608 20.3049ZM15.9999 15.6924C15.0778 15.6924 14.21 15.3328 13.5571 14.6799C12.9042 14.027 12.5446 13.1591 12.5446 12.237C12.5446 11.3149 12.9042 10.4471 13.5571 9.79417C14.21 9.14127 15.0778 8.78167 15.9999 8.78167C16.922 8.78167 17.7899 9.14127 18.4428 9.79417C19.0957 10.4471 19.4553 11.3149 19.4553 12.237C19.4553 13.1591 19.0957 14.027 18.4428 14.6799C17.7899 15.3328 16.922 15.6924 15.9999 15.6924Z" fill="white"/>
</svg>
