<svg width="18" height="17" viewBox="0 0 18 17" fill="none" xmlns="http://www.w3.org/2000/svg">
<path fill-rule="evenodd" clip-rule="evenodd" d="M0.666687 8.49999C0.666687 3.89761 4.39765 0.166656 9.00002 0.166656C13.6024 0.166656 17.3334 3.89761 17.3334 8.49999C17.3334 13.1023 13.6024 16.8333 9.00002 16.8333C7.8931 16.8333 6.8346 16.6171 5.86603 16.2237C5.77855 16.1882 5.72804 16.1677 5.69074 16.1537C5.68634 16.1521 5.6825 16.1507 5.67923 16.1495L5.67526 16.15C5.64451 16.1542 5.6026 16.1611 5.52256 16.1744L2.55765 16.6686C2.54974 16.6699 2.54175 16.6712 2.53372 16.6726C2.39986 16.6949 2.25011 16.7199 2.12005 16.7297C1.97824 16.7404 1.75262 16.7442 1.51419 16.6419C1.21943 16.5155 0.984554 16.2806 0.858129 15.9858C0.755862 15.7474 0.759587 15.5217 0.770295 15.38C0.780112 15.2499 0.80512 15.1002 0.82747 14.9663C0.828812 14.9582 0.830145 14.9502 0.831462 14.9423L1.32561 11.9775C1.33895 11.8974 1.34585 11.8555 1.35002 11.8247L1.35055 11.8207C1.34935 11.8175 1.34795 11.8137 1.34629 11.8092C1.33229 11.772 1.31185 11.7215 1.27632 11.634C0.882954 10.6654 0.666687 9.60691 0.666687 8.49999ZM9.00002 1.83332C5.31812 1.83332 2.33335 4.81809 2.33335 8.49999C2.33335 9.38832 2.50665 10.2341 2.8205 11.0068C2.82545 11.0191 2.83056 11.0316 2.83577 11.0443C2.88665 11.1689 2.94716 11.3171 2.97817 11.4555C3.00635 11.5812 3.01851 11.691 3.01853 11.8197C3.01855 11.9612 2.99445 12.104 2.975 12.2193C2.97315 12.2303 2.97135 12.241 2.9696 12.2514L2.51381 14.9862L5.24856 14.5304C5.259 14.5287 5.26973 14.5268 5.28069 14.525C5.39599 14.5056 5.5389 14.4815 5.68024 14.4815C5.80904 14.4815 5.91888 14.4937 6.04455 14.5218C6.18291 14.5528 6.33109 14.6133 6.4557 14.6642C6.46844 14.6695 6.48095 14.6746 6.49316 14.6795C7.26594 14.9933 8.11169 15.1667 9.00002 15.1667C12.6819 15.1667 15.6667 12.1819 15.6667 8.49999C15.6667 4.81809 12.6819 1.83332 9.00002 1.83332ZM4.00002 8.49999C4.00002 7.80966 4.55966 7.24999 5.25002 7.24999C5.94038 7.24999 6.50002 7.80966 6.50002 8.49999C6.50002 9.19032 5.94038 9.74999 5.25002 9.74999C4.55966 9.74999 4.00002 9.19032 4.00002 8.49999ZM7.75002 8.49999C7.75002 7.80966 8.30969 7.24999 9.00002 7.24999C9.69035 7.24999 10.25 7.80966 10.25 8.49999C10.25 9.19032 9.69035 9.74999 9.00002 9.74999C8.30969 9.74999 7.75002 9.19032 7.75002 8.49999ZM11.5 8.49999C11.5 7.80966 12.0597 7.24999 12.75 7.24999C13.4404 7.24999 14 7.80966 14 8.49999C14 9.19032 13.4404 9.74999 12.75 9.74999C12.0597 9.74999 11.5 9.19032 11.5 8.49999Z" fill="#8B0203"/>
</svg>
