<svg width="18" height="18" viewBox="0 0 18 18" fill="none" xmlns="http://www.w3.org/2000/svg">
<path fill-rule="evenodd" clip-rule="evenodd" d="M5.46585 0.166656H12.5342C13.205 0.166656 13.7592 0.166656 14.2092 0.203323C14.6784 0.241656 15.1092 0.324157 15.5134 0.52999C16.1405 0.849563 16.6504 1.35948 16.97 1.98666C17.1759 2.39082 17.2584 2.82166 17.2967 3.28999C17.3334 3.74166 17.3334 4.29499 17.3334 4.96499V9.77832C17.3334 10.3367 17.3334 10.7975 17.3084 11.1742C17.2809 11.5658 17.2242 11.9275 17.08 12.2758C16.9125 12.6803 16.667 13.0478 16.3574 13.3574C16.0478 13.6669 15.6803 13.9125 15.2759 14.08C14.9275 14.2242 14.5659 14.2808 14.1742 14.3075C13.7975 14.3333 13.3367 14.3333 12.7784 14.3333H12.75C12.3025 14.3333 12.2142 14.3383 12.1417 14.3558C12.0161 14.3855 11.8991 14.444 11.8 14.5267C11.7417 14.5742 11.685 14.6425 11.4167 15L10.1859 16.6417C10.1084 16.745 10.02 16.8625 9.93585 16.9567C9.80459 17.1092 9.63892 17.2283 9.45252 17.3042C9.1612 17.4174 8.83801 17.4174 8.54669 17.3042C8.36059 17.2282 8.19521 17.1091 8.06419 16.9567C7.98002 16.8625 7.89169 16.745 7.81419 16.6408L6.58335 15C6.31502 14.6417 6.25835 14.575 6.20002 14.5267C6.1009 14.444 5.98393 14.3855 5.85835 14.3558C5.78585 14.3392 5.69752 14.3333 5.25002 14.3333H5.22169C4.66335 14.3333 4.20252 14.3333 3.82502 14.3083C3.43419 14.2808 3.07252 14.2242 2.72502 14.08C2.3204 13.9126 1.95273 13.6671 1.64302 13.3575C1.33331 13.0479 1.08763 12.6804 0.92002 12.2758C0.775854 11.9275 0.719187 11.5658 0.69252 11.175C0.666687 10.7975 0.666687 10.3367 0.666687 9.77832V4.96666C0.666687 4.29582 0.666687 3.74166 0.703354 3.29166C0.741687 2.82249 0.824187 2.39166 1.03002 1.98749C1.34959 1.36031 1.85951 0.850396 2.48669 0.530823C2.89085 0.32499 3.32169 0.24249 3.79002 0.204157C4.24169 0.166657 4.79585 0.166656 5.46585 0.166656ZM3.92502 1.86499C3.56002 1.89416 3.37252 1.94832 3.24252 2.01499C2.92893 2.17478 2.67397 2.42973 2.51419 2.74332C2.44752 2.87332 2.39335 3.05999 2.36419 3.42582C2.33335 3.80082 2.33335 4.28582 2.33335 4.99999V9.74999C2.33335 10.3442 2.33335 10.7475 2.35502 11.0608C2.37585 11.3675 2.41335 11.5267 2.46002 11.6375C2.54378 11.8398 2.6666 12.0237 2.82146 12.1786C2.97631 12.3334 3.16017 12.4562 3.36252 12.54C3.47335 12.5858 3.63252 12.6233 3.93919 12.645C4.25252 12.6667 4.65585 12.6667 5.25002 12.6667H5.32002C5.65752 12.6667 5.95502 12.6667 6.24085 12.7333C6.61863 12.8226 6.97042 12.9987 7.26835 13.2475C7.49335 13.4358 7.67252 13.6733 7.87502 13.9442L7.91669 14L9.00002 15.4442L10.0834 14L10.125 13.9442C10.3275 13.6733 10.5059 13.4358 10.7317 13.2475C11.0296 12.9987 11.3814 12.8226 11.7592 12.7333C12.045 12.6667 12.3425 12.6667 12.68 12.6667H12.75C13.3442 12.6667 13.7475 12.6667 14.0609 12.645C14.3675 12.6242 14.5267 12.5867 14.6375 12.54C14.8399 12.4562 15.0237 12.3334 15.1786 12.1786C15.3334 12.0237 15.4563 11.8398 15.54 11.6375C15.5859 11.5267 15.6234 11.3675 15.645 11.0608C15.6667 10.7475 15.6667 10.3442 15.6667 9.74999V4.99999C15.6667 4.28582 15.6667 3.80082 15.635 3.42582C15.6059 3.06082 15.5517 2.87332 15.485 2.74332C15.3252 2.42973 15.0703 2.17478 14.7567 2.01499C14.6267 1.94832 14.44 1.89416 14.0742 1.86499C13.6992 1.83332 13.2142 1.83332 12.5 1.83332H5.50002C4.78585 1.83332 4.30002 1.83332 3.92502 1.86499ZM8.16669 4.33332C8.16669 4.11231 8.25448 3.90035 8.41076 3.74407C8.56705 3.58779 8.77901 3.49999 9.00002 3.49999H9.00835C9.22937 3.49999 9.44133 3.58779 9.59761 3.74407C9.75389 3.90035 9.84169 4.11231 9.84169 4.33332C9.84169 4.55434 9.75389 4.7663 9.59761 4.92258C9.44133 5.07886 9.22937 5.16666 9.00835 5.16666H9.00002C8.77901 5.16666 8.56705 5.07886 8.41076 4.92258C8.25448 4.7663 8.16669 4.55434 8.16669 4.33332ZM9.00002 6.41666C9.22103 6.41666 9.43299 6.50445 9.58928 6.66073C9.74556 6.81701 9.83335 7.02898 9.83335 7.24999V10.1667C9.83335 10.3877 9.74556 10.5996 9.58928 10.7559C9.43299 10.9122 9.22103 11 9.00002 11C8.77901 11 8.56705 10.9122 8.41076 10.7559C8.25448 10.5996 8.16669 10.3877 8.16669 10.1667V7.24999C8.16669 7.02898 8.25448 6.81701 8.41076 6.66073C8.56705 6.50445 8.77901 6.41666 9.00002 6.41666Z" fill="#8B0203"/>
</svg>
