<svg width="32" height="33" viewBox="0 0 32 33" fill="none" xmlns="http://www.w3.org/2000/svg">
<path fill-rule="evenodd" clip-rule="evenodd" d="M9.77227 5.95784H22.2278C22.7901 5.95782 23.2752 5.95781 23.6747 5.99045C24.0965 6.02491 24.5158 6.10098 24.9195 6.30662C25.5216 6.61342 26.0112 7.10296 26.3179 7.70507C26.5235 8.10869 26.5997 8.52811 26.6341 8.9498C26.6667 9.34936 26.6667 9.83443 26.6667 10.3967V22.8523C26.6667 23.4145 26.6667 23.8997 26.6341 24.2992C26.5997 24.7209 26.5235 25.1403 26.3179 25.544C26.0112 26.1461 25.5216 26.6357 24.9195 26.9424C24.5158 27.148 24.0965 27.2241 23.6747 27.2585C23.2752 27.2912 22.7901 27.2912 22.2278 27.2912H9.77223C9.20996 27.2912 8.72489 27.2912 8.32534 27.2585C7.90364 27.2241 7.48422 27.148 7.0806 26.9424C6.47849 26.6357 5.98896 26.1461 5.68216 25.544C5.47651 25.1403 5.40045 24.7209 5.36598 24.2992C5.33334 23.8997 5.33336 23.4145 5.33337 22.8523V10.3967C5.33336 9.83443 5.33334 9.34936 5.36598 8.9498C5.40045 8.52811 5.47651 8.10869 5.68216 7.70507C5.98896 7.10296 6.47849 6.61342 7.0806 6.30662C7.48422 6.10098 7.90364 6.02491 8.32534 5.99045C8.72489 5.95781 9.20996 5.95782 9.77227 5.95784ZM7.46672 14.987V22.8112C7.46672 23.4262 7.46753 23.8232 7.49224 24.1254C7.51592 24.4152 7.55609 24.5227 7.58297 24.5753C7.68523 24.7761 7.84841 24.9393 8.04912 25.0416C8.10187 25.0685 8.20929 25.1086 8.49907 25.1323C8.80129 25.1569 9.19838 25.1579 9.81337 25.1579H11.7334V20.4305C11.7333 20.1613 11.7333 19.899 11.7514 19.6771C11.7714 19.4332 11.8184 19.1455 11.9659 18.856C12.1704 18.4546 12.4968 18.1282 12.8982 17.9237C13.1877 17.7762 13.4754 17.7292 13.7193 17.7092C13.9413 17.6911 14.2035 17.6911 14.4727 17.6912H17.5274C17.7966 17.6911 18.0588 17.6911 18.2808 17.7092C18.5246 17.7292 18.8124 17.7762 19.1019 17.9237C19.5034 18.1282 19.8296 18.4546 20.0342 18.856C20.1818 19.1455 20.2286 19.4332 20.2486 19.6771C20.2667 19.899 20.2667 20.1613 20.2667 20.4305V25.1579H22.1867C22.8018 25.1579 23.1987 25.1569 23.5009 25.1323C23.7907 25.1086 23.8982 25.0685 23.9509 25.0416C24.1517 24.9393 24.3149 24.7761 24.4171 24.5753C24.444 24.5227 24.4841 24.4152 24.5078 24.1254C24.5325 23.8232 24.5334 23.4262 24.5334 22.8112V14.987C23.9058 15.3501 23.1771 15.5578 22.4 15.5578C21.1258 15.5578 19.9819 14.9992 19.2 14.1134C18.4182 14.9992 17.2744 15.5578 16 15.5578C14.7257 15.5578 13.5818 14.9992 12.8 14.1134C12.0182 14.9992 10.8744 15.5578 9.60004 15.5578C8.82289 15.5578 8.09428 15.3501 7.46672 14.987ZM13.8667 11.2912C13.8667 12.4694 14.8218 13.4245 16 13.4245C17.1782 13.4245 18.1334 12.4694 18.1334 11.2912C18.1334 10.7021 18.6109 10.2245 19.2 10.2245C19.7891 10.2245 20.2667 10.7021 20.2667 11.2912C20.2667 12.4694 21.2218 13.4245 22.4 13.4245C23.5782 13.4245 24.5334 12.4694 24.5334 11.2912V10.4378C24.5334 9.82284 24.5325 9.42576 24.5078 9.12353C24.4841 8.83376 24.444 8.72633 24.4171 8.67358C24.3149 8.47288 24.1517 8.30969 23.9509 8.20744C23.8982 8.18056 23.7907 8.14038 23.5009 8.1167C23.1987 8.092 22.8018 8.09118 22.1867 8.09118H9.81337C9.19838 8.09118 8.80129 8.092 8.49907 8.1167C8.20929 8.14038 8.10187 8.18056 8.04912 8.20744C7.84841 8.30969 7.68523 8.47288 7.58297 8.67358C7.55609 8.72633 7.51592 8.83376 7.49224 9.12353C7.46753 9.42576 7.46672 9.82284 7.46672 10.4378V11.2912C7.46672 12.4694 8.42183 13.4245 9.60004 13.4245C10.7782 13.4245 11.7334 12.4694 11.7334 11.2912C11.7334 10.7021 12.2109 10.2245 12.8 10.2245C13.3891 10.2245 13.8667 10.7021 13.8667 11.2912ZM18.1334 25.1579V20.4645C18.1334 20.1481 18.1325 19.9752 18.1224 19.8507C18.122 19.8457 18.1216 19.8411 18.1212 19.8368C18.1167 19.8363 18.112 19.8358 18.1071 19.8355C17.9827 19.8253 17.8097 19.8245 17.4934 19.8245H14.5067C14.1904 19.8245 14.0173 19.8253 13.893 19.8355C13.888 19.8358 13.8833 19.8363 13.8789 19.8368C13.8785 19.8411 13.8781 19.8457 13.8777 19.8507C13.8675 19.9752 13.8667 20.1481 13.8667 20.4645V25.1579H18.1334Z" fill="white"/>
</svg>
