<svg width="32" height="33" viewBox="0 0 32 33" fill="none" xmlns="http://www.w3.org/2000/svg">
<path fill-rule="evenodd" clip-rule="evenodd" d="M9.36873 7.29118H9.83549C10.8864 7.29118 11.7341 7.29117 12.4205 7.34726C13.1273 7.405 13.7481 7.527 14.3224 7.81964C14.9853 8.15738 15.5581 8.64128 16 9.23058C16.442 8.64128 17.0148 8.15738 17.6777 7.81964C18.252 7.527 18.8728 7.405 19.5796 7.34726C20.266 7.29117 21.1137 7.29118 22.1646 7.29118H22.6314C23.1425 7.29117 23.5835 7.29115 23.9467 7.32083C24.3301 7.35216 24.7114 7.42131 25.0783 7.60826C25.6257 7.88717 26.0708 8.3322 26.3496 8.87958C26.5367 9.2465 26.6058 9.6278 26.637 10.0112C26.6667 10.3744 26.6667 10.8154 26.6667 11.3265V19.7407C26.6667 20.2519 26.6667 20.6929 26.637 21.0561C26.6058 21.4395 26.5367 21.8207 26.3496 22.1877C26.0708 22.7351 25.6257 23.1801 25.0783 23.459C24.7114 23.6459 24.3301 23.7151 23.9467 23.7464C23.5835 23.7761 23.1426 23.7761 22.6314 23.7761H21.2609C19.9861 23.7761 19.5508 23.786 19.17 23.9016C18.804 24.0127 18.4636 24.1948 18.1682 24.4377C17.8607 24.6904 17.611 25.0472 16.9039 26.1079L16.8069 26.2533C16.627 26.5231 16.3243 26.6852 16 26.6852C15.6758 26.6852 15.3731 26.5231 15.1932 26.2533L15.0962 26.1079C14.3891 25.0472 14.1394 24.6904 13.8319 24.4377C13.5365 24.1948 13.1961 24.0127 12.8301 23.9016C12.4493 23.786 12.014 23.7761 10.7393 23.7761H9.36871C8.85754 23.7761 8.41656 23.7761 8.05335 23.7464C7.66999 23.7151 7.28868 23.6459 6.92177 23.459C6.37438 23.1801 5.92935 22.7351 5.65045 22.1877C5.4635 21.8207 5.39434 21.4395 5.36302 21.0561C5.33334 20.6929 5.33336 20.2519 5.33337 19.7407V11.3265C5.33336 10.8154 5.33334 10.3744 5.36302 10.0112C5.39434 9.6278 5.4635 9.2465 5.65045 8.87958C5.92935 8.3322 6.37438 7.88717 6.92177 7.60826C7.28868 7.42131 7.66999 7.35216 8.05335 7.32083C8.41658 7.29115 8.85755 7.29117 9.36873 7.29118ZM15.0304 14.467C15.0304 13.3648 15.0296 12.5965 14.9807 11.9983C14.9328 11.4115 14.8434 11.0744 14.7133 10.819C14.4344 10.2716 13.9893 9.82656 13.442 9.54765C13.1866 9.41754 12.8494 9.32816 12.2626 9.2802C11.6645 9.23135 10.8961 9.23059 9.79399 9.23059H9.40611C8.84702 9.23059 8.48603 9.23133 8.21128 9.25379C7.94785 9.27532 7.85018 9.31184 7.80224 9.33628C7.61978 9.42924 7.47143 9.57759 7.37847 9.76005C7.35403 9.808 7.31749 9.90566 7.29597 10.1691C7.27352 10.4438 7.27277 10.8048 7.27277 11.3639V19.7033C7.27277 20.2625 7.27352 20.6233 7.29597 20.8981C7.31749 21.1615 7.35403 21.2593 7.37847 21.3071C7.47143 21.4897 7.61978 21.638 7.80224 21.731C7.85018 21.7554 7.94785 21.7919 8.21128 21.8135C8.48603 21.8359 8.84702 21.8367 9.40611 21.8367H10.7393C10.7876 21.8367 10.8353 21.8366 10.8824 21.8366C11.9584 21.8363 12.7025 21.836 13.3937 22.0459C13.99 22.227 14.5457 22.5212 15.0304 22.9125V14.467ZM16.9698 22.9125C17.4545 22.5212 18.0101 22.227 18.6064 22.0459C19.2977 21.836 20.0417 21.8363 21.1178 21.8366C21.1647 21.8366 21.2124 21.8367 21.2609 21.8367H22.594C23.1531 21.8367 23.5141 21.8359 23.7889 21.8135C24.0523 21.7919 24.1499 21.7554 24.1979 21.731C24.3803 21.638 24.5287 21.4897 24.6216 21.3071C24.646 21.2593 24.6826 21.1615 24.7041 20.8981C24.7266 20.6233 24.7274 20.2625 24.7274 19.7033V11.3639C24.7274 10.8048 24.7266 10.4438 24.7041 10.1691C24.6826 9.90566 24.646 9.808 24.6216 9.76005C24.5287 9.57759 24.3803 9.42924 24.1979 9.33628C24.1499 9.31184 24.0523 9.27532 23.7889 9.25379C23.5141 9.23133 23.1531 9.23059 22.594 9.23059H22.206C21.1039 9.23059 20.3356 9.23135 19.7375 9.2802C19.1506 9.32816 18.8135 9.41754 18.5581 9.54765C18.0108 9.82656 17.5657 10.2716 17.2868 10.819C17.1567 11.0744 17.0673 11.4115 17.0194 11.9983C16.9705 12.5965 16.9698 13.3648 16.9698 14.467V22.9125Z" fill="white"/>
</svg>
