<svg width="32" height="32" viewBox="0 0 32 32" fill="none" xmlns="http://www.w3.org/2000/svg">
<path d="M26.3644 14.261L18.1054 7.413C16.8819 6.41788 15.1281 6.41788 13.9046 7.413L5.63573 14.2718C5.27416 14.5798 5.23071 15.1225 5.5387 15.4841C5.84667 15.8457 6.38945 15.8891 6.75103 15.5812L7.65259 14.8122V21.6416C7.65529 23.472 9.13851 24.9552 10.969 24.958H21.0656C22.8912 24.9485 24.367 23.4673 24.3697 21.6416V14.8205L25.2493 15.5699C25.411 15.7078 25.6092 15.7753 25.8064 15.7753C26.0497 15.7753 26.2912 15.6726 26.4613 15.473C26.7694 15.1114 26.7259 14.5688 26.3644 14.261ZM22.6501 21.6416C22.6487 22.5229 21.9346 23.237 21.0533 23.2383H10.9567C10.0802 23.2303 9.37351 22.5181 9.3722 21.6416V13.3579L14.9929 8.74447C15.5825 8.26501 16.4275 8.26501 17.0171 8.74447L22.6501 13.3579V21.6416Z" fill="white"/>
<path d="M12 18.7474C12 19.5284 12.5977 20.1615 13.335 20.1615H19.4381C20.1755 20.1615 20.7732 19.5284 20.7732 18.7474C20.7732 17.9665 20.1755 17.3333 19.4381 17.3333H13.335C12.5977 17.3333 12 17.9665 12 18.7474Z" fill="white"/>
</svg>
