<svg width="32" height="33" viewBox="0 0 32 33" fill="none" xmlns="http://www.w3.org/2000/svg">
<path fill-rule="evenodd" clip-rule="evenodd" d="M10.1401 8.62451C10.1489 8.62451 10.1578 8.62453 10.1667 8.62453H13.3333C13.3422 8.62453 13.3511 8.62451 13.3599 8.62451C13.5702 8.62449 13.7751 8.62446 13.9485 8.63864C14.139 8.6542 14.3638 8.69093 14.59 8.80618C14.9036 8.96596 15.1586 9.22094 15.3184 9.53454C15.4336 9.76073 15.4703 9.9855 15.4859 10.176C15.5001 10.3495 15.5 10.5543 15.5 10.7646V13.9844C15.5 14.1947 15.5001 14.3996 15.4859 14.5731C15.4703 14.7635 15.4336 14.9883 15.3184 15.2145C15.1586 15.5281 14.9036 15.7831 14.59 15.9429C14.3638 16.0581 14.139 16.0948 13.9485 16.1104C13.7751 16.1246 13.5702 16.1246 13.3599 16.1245H10.1401C9.92979 16.1246 9.72495 16.1246 9.55149 16.1104C9.36099 16.0948 9.13621 16.0581 8.91003 15.9429C8.59643 15.7831 8.34145 15.5281 8.18166 15.2145C8.06641 14.9883 8.02969 14.7635 8.01413 14.5731C7.99995 14.3996 7.99998 14.1948 8 13.9844C8 13.9756 8.00001 13.9667 8.00001 13.9579V10.7912C8.00001 10.7823 8 10.7735 8 10.7646C7.99998 10.5543 7.99995 10.3495 8.01413 10.176C8.02969 9.9855 8.06641 9.76073 8.18166 9.53454C8.34145 9.22094 8.59643 8.96596 8.91003 8.80618C9.13621 8.69093 9.36099 8.6542 9.55149 8.63864C9.72495 8.62446 9.92978 8.62449 10.1401 8.62451ZM9.67621 10.3007C9.6759 10.3042 9.67558 10.3079 9.67526 10.3117C9.66733 10.4089 9.66668 10.5441 9.66668 10.7912V13.9579C9.66668 14.205 9.66733 14.3402 9.67526 14.4373C9.67558 14.4412 9.6759 14.4449 9.67621 14.4483C9.67968 14.4486 9.68334 14.449 9.6872 14.4493C9.78435 14.4572 9.91956 14.4579 10.1667 14.4579H13.3333C13.5805 14.4579 13.7157 14.4572 13.8128 14.4493C13.8167 14.449 13.8203 14.4486 13.8238 14.4483C13.8241 14.4449 13.8244 14.4412 13.8248 14.4373C13.8327 14.3402 13.8333 14.205 13.8333 13.9579V10.7912C13.8333 10.5441 13.8327 10.4089 13.8248 10.3117C13.8244 10.3079 13.8241 10.3042 13.8238 10.3007C13.8203 10.3004 13.8167 10.3001 13.8128 10.2998C13.7157 10.2918 13.5805 10.2912 13.3333 10.2912H10.1667C9.91956 10.2912 9.78435 10.2918 9.6872 10.2998C9.68334 10.3001 9.67968 10.3004 9.67621 10.3007ZM19.3068 8.62451H22.5266C22.7369 8.62449 22.9417 8.62446 23.1152 8.63864C23.3057 8.6542 23.5304 8.69093 23.7567 8.80618C24.0703 8.96596 24.3252 9.22094 24.4851 9.53454C24.6003 9.76073 24.6369 9.9855 24.6526 10.176C24.6667 10.3495 24.6667 10.5543 24.6667 10.7646V13.9845C24.6667 14.1948 24.6667 14.3996 24.6526 14.5731C24.6369 14.7635 24.6003 14.9883 24.4851 15.2145C24.3252 15.5281 24.0703 15.7831 23.7567 15.9429C23.5304 16.0581 23.3057 16.0948 23.1152 16.1104C22.9417 16.1246 22.7369 16.1246 22.5266 16.1245H19.3068C19.0964 16.1246 18.8916 16.1246 18.7182 16.1104C18.5277 16.0948 18.3029 16.0581 18.0767 15.9429C17.7631 15.7831 17.5081 15.5281 17.3483 15.2145C17.2331 14.9883 17.1964 14.7635 17.1808 14.5731C17.1666 14.3996 17.1667 14.1948 17.1667 13.9844V10.7646C17.1667 10.5543 17.1666 10.3495 17.1808 10.176C17.1964 9.9855 17.2331 9.76073 17.3483 9.53454C17.5081 9.22094 17.7631 8.96596 18.0767 8.80618C18.3029 8.69093 18.5277 8.6542 18.7182 8.63864C18.8916 8.62446 19.0964 8.62449 19.3068 8.62451ZM18.8429 10.3007C18.8426 10.3042 18.8422 10.3079 18.8419 10.3117C18.8339 10.4089 18.8333 10.5441 18.8333 10.7912V13.9579C18.8333 14.205 18.8339 14.3402 18.8419 14.4373C18.8422 14.4412 18.8426 14.4449 18.8429 14.4483C18.8463 14.4486 18.8499 14.449 18.8538 14.4493C18.9511 14.4572 19.0862 14.4579 19.3333 14.4579H22.5001C22.7471 14.4579 22.8823 14.4572 22.9794 14.4493C22.9833 14.449 22.9871 14.4486 22.9904 14.4483C22.9908 14.4449 22.9911 14.4412 22.9914 14.4373C22.9993 14.3402 23.0001 14.205 23.0001 13.9579V10.7912C23.0001 10.5441 22.9993 10.4089 22.9914 10.3117C22.9911 10.3079 22.9908 10.3042 22.9904 10.3007C22.9871 10.3004 22.9833 10.3001 22.9794 10.2998C22.8823 10.2918 22.7471 10.2912 22.5001 10.2912H19.3333C19.0862 10.2912 18.9511 10.2918 18.8538 10.2998C18.8499 10.3001 18.8463 10.3004 18.8429 10.3007ZM10.1401 17.7912H13.3599C13.5702 17.7912 13.7751 17.7911 13.9485 17.8053C14.139 17.8209 14.3638 17.8576 14.59 17.9728C14.9036 18.1326 15.1586 18.3876 15.3184 18.7012C15.4336 18.9274 15.4703 19.1522 15.4859 19.3427C15.5001 19.5161 15.5 19.721 15.5 19.9313V23.1511C15.5 23.3615 15.5001 23.5662 15.4859 23.7397C15.4703 23.9302 15.4336 24.155 15.3184 24.3812C15.1586 24.6948 14.9036 24.9497 14.59 25.1096C14.3638 25.2248 14.139 25.2615 13.9485 25.2771C13.7751 25.2912 13.5703 25.2912 13.3599 25.2912H10.1401C9.92976 25.2912 9.72494 25.2912 9.55149 25.2771C9.36099 25.2615 9.13621 25.2248 8.91003 25.1096C8.59643 24.9497 8.34145 24.6948 8.18166 24.3812C8.06641 24.155 8.02969 23.9302 8.01413 23.7397C7.99995 23.5662 7.99998 23.3615 8 23.1511V19.9313C7.99998 19.721 7.99995 19.5161 8.01413 19.3427C8.02969 19.1522 8.06641 18.9274 8.18166 18.7012C8.34145 18.3876 8.59643 18.1326 8.91003 17.9728C9.13621 17.8576 9.36099 17.8209 9.55149 17.8053C9.72495 17.7911 9.92979 17.7912 10.1401 17.7912ZM9.67621 19.4675C9.6759 19.4708 9.67558 19.4745 9.67526 19.4783C9.66733 19.5756 9.66668 19.7107 9.66668 19.9578V23.1246C9.66668 23.3716 9.66733 23.5068 9.67526 23.604C9.67558 23.6078 9.6759 23.6116 9.67621 23.615C9.67968 23.6153 9.68334 23.6156 9.6872 23.616C9.78435 23.6238 9.91956 23.6246 10.1667 23.6246H13.3333C13.5805 23.6246 13.7157 23.6238 13.8128 23.616C13.8167 23.6156 13.8203 23.6153 13.8238 23.615C13.8241 23.6116 13.8244 23.6078 13.8248 23.604C13.8327 23.5068 13.8333 23.3716 13.8333 23.1246V19.9578C13.8333 19.7107 13.8327 19.5756 13.8248 19.4783C13.8244 19.4745 13.8241 19.4708 13.8238 19.4675C13.8203 19.4671 13.8167 19.4667 13.8128 19.4665C13.7157 19.4585 13.5805 19.4579 13.3333 19.4579H10.1667C9.91956 19.4579 9.78435 19.4585 9.6872 19.4665C9.68334 19.4667 9.67968 19.4671 9.67621 19.4675ZM19.3068 17.7912H22.5266C22.7369 17.7912 22.9417 17.7911 23.1152 17.8053C23.3057 17.8209 23.5304 17.8576 23.7567 17.9728C24.0703 18.1326 24.3252 18.3876 24.4851 18.7012C24.6003 18.9274 24.6369 19.1522 24.6526 19.3427C24.6667 19.5161 24.6667 19.721 24.6667 19.9312V23.1511C24.6667 23.3615 24.6667 23.5662 24.6526 23.7397C24.6369 23.9302 24.6003 24.155 24.4851 24.3812C24.3252 24.6948 24.0703 24.9497 23.7567 25.1096C23.5304 25.2248 23.3057 25.2615 23.1152 25.2771C22.9417 25.2912 22.7369 25.2912 22.5266 25.2912H19.3067C19.0964 25.2912 18.8916 25.2912 18.7182 25.2771C18.5277 25.2615 18.3029 25.2248 18.0767 25.1096C17.7631 24.9497 17.5081 24.6948 17.3483 24.3812C17.2331 24.155 17.1964 23.9302 17.1808 23.7397C17.1666 23.5662 17.1667 23.3615 17.1667 23.1511V19.9313C17.1667 19.721 17.1666 19.5161 17.1808 19.3427C17.1964 19.1522 17.2331 18.9274 17.3483 18.7012C17.5081 18.3876 17.7631 18.1326 18.0767 17.9728C18.3029 17.8576 18.5277 17.8209 18.7182 17.8053C18.8916 17.7911 19.0964 17.7912 19.3068 17.7912ZM18.8429 19.4675C18.8426 19.4708 18.8422 19.4745 18.8419 19.4783C18.8339 19.5756 18.8333 19.7107 18.8333 19.9578V23.1246C18.8333 23.3716 18.8339 23.5068 18.8419 23.604C18.8422 23.6078 18.8426 23.6116 18.8429 23.615C18.8463 23.6153 18.8501 23.6156 18.8538 23.616C18.9511 23.6238 19.0862 23.6246 19.3333 23.6246H22.5001C22.7471 23.6246 22.8823 23.6238 22.9794 23.616C22.9833 23.6156 22.9871 23.6153 22.9904 23.615C22.9908 23.6116 22.9911 23.6078 22.9914 23.604C22.9993 23.5068 23.0001 23.3716 23.0001 23.1246V19.9578C23.0001 19.7107 22.9993 19.5756 22.9914 19.4783C22.9911 19.4746 22.9908 19.4708 22.9904 19.4675C22.9871 19.4671 22.9833 19.4667 22.9794 19.4665C22.8823 19.4585 22.7471 19.4579 22.5001 19.4579H19.3333C19.0862 19.4579 18.9511 19.4585 18.8538 19.4665C18.8499 19.4667 18.8463 19.4671 18.8429 19.4675Z" fill="white"/>
</svg>
