<svg width="18" height="18" viewBox="0 0 18 18" fill="none" xmlns="http://www.w3.org/2000/svg">
<path fill-rule="evenodd" clip-rule="evenodd" d="M5.46591 0.166992H12.5342C13.2051 0.166992 13.7592 0.166992 14.2092 0.203659C14.6784 0.241992 15.1092 0.324492 15.5134 0.530326C16.1406 0.849899 16.6505 1.35981 16.9701 1.98699C17.1759 2.39116 17.2584 2.82199 17.2967 3.29033C17.3334 3.74199 17.3334 4.29533 17.3334 4.96533V9.77866C17.3334 10.337 17.3334 10.7978 17.3084 11.1745C17.2809 11.5662 17.2242 11.9278 17.0801 12.2762C16.9126 12.6806 16.667 13.0481 16.3575 13.3577C16.0479 13.6673 15.6804 13.9128 15.2759 14.0803C14.9276 14.2245 14.5659 14.2812 14.1742 14.3078C13.7976 14.3337 13.3367 14.3337 12.7784 14.3337H12.7501C12.3026 14.3337 12.2142 14.3387 12.1417 14.3562C12.0162 14.3859 11.8992 14.4444 11.8001 14.527C11.7417 14.5745 11.6851 14.6428 11.4167 15.0003L10.1859 16.642C10.1084 16.7453 10.0201 16.8628 9.93591 16.957C9.80465 17.1095 9.63898 17.2286 9.45258 17.3045C9.16126 17.4177 8.83807 17.4177 8.54675 17.3045C8.36065 17.2285 8.19527 17.1094 8.06425 16.957C7.98008 16.8628 7.89175 16.7453 7.81425 16.6412L6.58342 15.0003C6.31508 14.642 6.25841 14.5753 6.20008 14.527C6.10096 14.4444 5.98399 14.3859 5.85841 14.3562C5.78591 14.3395 5.69758 14.3337 5.25008 14.3337H5.22175C4.66341 14.3337 4.20258 14.3337 3.82508 14.3087C3.43425 14.2812 3.07258 14.2245 2.72508 14.0803C2.32046 13.9129 1.95279 13.6674 1.64308 13.3578C1.33337 13.0483 1.08769 12.6807 0.920081 12.2762C0.775915 11.9278 0.719248 11.5662 0.692581 11.1753C0.666748 10.7978 0.666748 10.337 0.666748 9.77866V4.96699C0.666748 4.29616 0.666748 3.74199 0.703415 3.29199C0.741748 2.82283 0.824248 2.39199 1.03008 1.98783C1.34965 1.36065 1.85957 0.850732 2.48675 0.531159C2.89091 0.325326 3.32175 0.242826 3.79008 0.204492C4.24175 0.166992 4.79591 0.166992 5.46591 0.166992ZM3.92508 1.86533C3.56008 1.89449 3.37258 1.94866 3.24258 2.01533C2.92899 2.17511 2.67403 2.43007 2.51425 2.74366C2.44758 2.87366 2.39341 3.06033 2.36425 3.42616C2.33341 3.80116 2.33341 4.28616 2.33341 5.00033V9.75033C2.33341 10.3445 2.33341 10.7478 2.35508 11.0612C2.37591 11.3678 2.41341 11.527 2.46008 11.6378C2.54384 11.8402 2.66666 12.024 2.82152 12.1789C2.97637 12.3337 3.16023 12.4566 3.36258 12.5403C3.47341 12.5862 3.63258 12.6237 3.93925 12.6453C4.25258 12.667 4.65591 12.667 5.25008 12.667H5.32008C5.65758 12.667 5.95508 12.667 6.24091 12.7337C6.61869 12.823 6.97048 12.999 7.26841 13.2478C7.49341 13.4362 7.67258 13.6737 7.87508 13.9445L7.91675 14.0003L9.00008 15.4445L10.0834 14.0003L10.1251 13.9445C10.3276 13.6737 10.5059 13.4362 10.7317 13.2478C11.0297 12.999 11.3815 12.823 11.7592 12.7337C12.0451 12.667 12.3426 12.667 12.6801 12.667H12.7501C13.3442 12.667 13.7476 12.667 14.0609 12.6453C14.3676 12.6245 14.5267 12.587 14.6376 12.5403C14.8399 12.4566 15.0238 12.3337 15.1786 12.1789C15.3335 12.024 15.4563 11.8402 15.5401 11.6378C15.5859 11.527 15.6234 11.3678 15.6451 11.0612C15.6667 10.7478 15.6667 10.3445 15.6667 9.75033V5.00033C15.6667 4.28616 15.6667 3.80116 15.6351 3.42616C15.6059 3.06116 15.5517 2.87366 15.4851 2.74366C15.3253 2.43007 15.0703 2.17511 14.7567 2.01533C14.6267 1.94866 14.4401 1.89449 14.0742 1.86533C13.6992 1.83366 13.2142 1.83366 12.5001 1.83366H5.50008C4.78591 1.83366 4.30008 1.83366 3.92508 1.86533ZM8.16675 4.33366C8.16675 4.11264 8.25455 3.90068 8.41083 3.7444C8.56711 3.58812 8.77907 3.50033 9.00008 3.50033H9.00841C9.22943 3.50033 9.44139 3.58812 9.59767 3.7444C9.75395 3.90068 9.84175 4.11264 9.84175 4.33366C9.84175 4.55467 9.75395 4.76663 9.59767 4.92291C9.44139 5.07919 9.22943 5.16699 9.00841 5.16699H9.00008C8.77907 5.16699 8.56711 5.07919 8.41083 4.92291C8.25455 4.76663 8.16675 4.55467 8.16675 4.33366ZM9.00008 6.41699C9.2211 6.41699 9.43306 6.50479 9.58934 6.66107C9.74562 6.81735 9.83341 7.02931 9.83341 7.25033V10.167C9.83341 10.388 9.74562 10.6 9.58934 10.7562C9.43306 10.9125 9.2211 11.0003 9.00008 11.0003C8.77907 11.0003 8.56711 10.9125 8.41083 10.7562C8.25455 10.6 8.16675 10.388 8.16675 10.167V7.25033C8.16675 7.02931 8.25455 6.81735 8.41083 6.66107C8.56711 6.50479 8.77907 6.41699 9.00008 6.41699Z" fill="#8B0203"/>
</svg>
