<svg width="16" height="15" viewBox="0 0 16 15" fill="none" xmlns="http://www.w3.org/2000/svg">
<path d="M7.6664 13.5937C3.89973 13.5937 0.833069 10.7187 0.833069 7.18747C0.833069 3.65622 3.89973 0.781219 7.6664 0.781219C11.4331 0.781219 14.4997 3.65622 14.4997 7.18747C14.4997 10.7187 11.4331 13.5937 7.6664 13.5937ZM7.6664 1.71872C4.4464 1.71872 1.83307 4.17497 1.83307 7.18747C1.83307 10.2 4.4464 12.6562 7.6664 12.6562C10.8864 12.6562 13.4997 10.2 13.4997 7.18747C13.4997 4.17497 10.8864 1.71872 7.6664 1.71872Z" fill="#1E1E1E" fill-opacity="0.67"/>
<path d="M14.6663 14.219C14.5397 14.219 14.413 14.1752 14.313 14.0815L12.9797 12.8315C12.7863 12.6502 12.7863 12.3502 12.9797 12.169C13.173 11.9877 13.493 11.9877 13.6863 12.169L15.0197 13.419C15.213 13.6002 15.213 13.9002 15.0197 14.0815C14.9197 14.1752 14.793 14.219 14.6663 14.219Z" fill="#1E1E1E" fill-opacity="0.67"/>
</svg>
