<svg width="16" height="17" viewBox="0 0 16 17" fill="none" xmlns="http://www.w3.org/2000/svg">
<path d="M14.9609 13.3045C14.5819 12.4068 14.032 11.5914 13.3417 10.9038C12.6535 10.2141 11.8383 9.66429 10.941 9.28459C10.933 9.28057 10.925 9.27856 10.9169 9.27454C12.1685 8.37053 12.9821 6.89798 12.9821 5.2366C12.9821 2.48437 10.7522 0.254456 7.99997 0.254456C5.24774 0.254456 3.01783 2.48437 3.01783 5.2366C3.01783 6.89798 3.83144 8.37053 5.08301 9.27655C5.07497 9.28057 5.06694 9.28258 5.0589 9.2866C4.1589 9.66629 3.35131 10.2107 2.65823 10.9058C1.96858 11.594 1.41873 12.4092 1.03903 13.3065C0.666021 14.1849 0.464846 15.1266 0.4464 16.0808C0.445864 16.1022 0.449625 16.1236 0.457461 16.1435C0.465297 16.1635 0.47705 16.1817 0.492028 16.197C0.507005 16.2124 0.524904 16.2246 0.544669 16.2329C0.564435 16.2412 0.585667 16.2455 0.607115 16.2455H1.81247C1.90086 16.2455 1.97118 16.1752 1.97319 16.0888C2.01336 14.5379 2.63613 13.0855 3.73703 11.9846C4.87609 10.8455 6.38881 10.2187 7.99997 10.2187C9.61113 10.2187 11.1239 10.8455 12.2629 11.9846C13.3638 13.0855 13.9866 14.5379 14.0268 16.0888C14.0288 16.1772 14.0991 16.2455 14.1875 16.2455H15.3928C15.4143 16.2455 15.4355 16.2412 15.4553 16.2329C15.475 16.2246 15.4929 16.2124 15.5079 16.197C15.5229 16.1817 15.5346 16.1635 15.5425 16.1435C15.5503 16.1236 15.5541 16.1022 15.5535 16.0808C15.5335 15.1205 15.3346 14.1864 14.9609 13.3045ZM7.99997 8.69196C7.07787 8.69196 6.21002 8.33236 5.55711 7.67946C4.90421 7.02655 4.54461 6.1587 4.54461 5.2366C4.54461 4.3145 4.90421 3.44664 5.55711 2.79374C6.21002 2.14084 7.07787 1.78124 7.99997 1.78124C8.92207 1.78124 9.78993 2.14084 10.4428 2.79374C11.0957 3.44664 11.4553 4.3145 11.4553 5.2366C11.4553 6.1587 11.0957 7.02655 10.4428 7.67946C9.78993 8.33236 8.92207 8.69196 7.99997 8.69196Z" fill="white"/>
</svg>
